<?xml version="1.0" encoding="utf-8"?>
<!-- Generator: Adobe Illustrator 24.2.1, SVG Export Plug-In . SVG Version: 6.00 Build 0)  -->
<!DOCTYPE svg PUBLIC "-//W3C//DTD SVG 1.1//EN" "http://www.w3.org/Graphics/SVG/1.1/DTD/svg11.dtd" [
	<!ENTITY ns_extend "http://ns.adobe.com/Extensibility/1.0/">
	<!ENTITY ns_ai "http://ns.adobe.com/AdobeIllustrator/10.0/">
	<!ENTITY ns_graphs "http://ns.adobe.com/Graphs/1.0/">
	<!ENTITY ns_vars "http://ns.adobe.com/Variables/1.0/">
	<!ENTITY ns_imrep "http://ns.adobe.com/ImageReplacement/1.0/">
	<!ENTITY ns_sfw "http://ns.adobe.com/SaveForWeb/1.0/">
	<!ENTITY ns_custom "http://ns.adobe.com/GenericCustomNamespace/1.0/">
	<!ENTITY ns_adobe_xpath "http://ns.adobe.com/XPath/1.0/">
]>
<svg version="1.1" id="Layer_1" xmlns:x="&ns_extend;" xmlns:i="&ns_ai;" xmlns:graph="&ns_graphs;"
	 xmlns="http://www.w3.org/2000/svg" xmlns:xlink="http://www.w3.org/1999/xlink" x="0px" y="0px" width="2048px" height="2048px"
	 viewBox="0 0 2048 2048" style="enable-background:new 0 0 2048 2048;" xml:space="preserve">
<style type="text/css">
	.Drop_x0020_Shadow{fill:none;}
	.Round_x0020_Corners_x0020_2_x0020_pt{fill:#FFFFFF;stroke:#231F20;stroke-miterlimit:10;}
	.Live_x0020_Reflect_x0020_X{fill:none;}
	.Bevel_x0020_Soft{fill:url(#SVGID_1_);}
	.Dusk{fill:#FFFFFF;}
	.Foliage_GS{fill:#FFDD00;}
	.Pompadour_GS{fill-rule:evenodd;clip-rule:evenodd;fill:#44ADE2;}
	.st0{fill:#E3F4FC;}
	.st1{fill:#3F3D56;}
	.st2{fill:#CCEDFF;}
	.st3{fill:#307AC7;}
	.st4{fill:#98D6FF;}
</style>
<metadata>
	<sfw  xmlns="&ns_sfw;">
		<slices></slices>
		<sliceSourceBounds  bottomLeftOrigin="true" height="1553.9" width="1572.3" x="237.8" y="-1800.5"></sliceSourceBounds>
	</sfw>
</metadata>
<linearGradient id="SVGID_1_" gradientUnits="userSpaceOnUse" x1="0" y1="0" x2="0.7071" y2="0.7071">
	<stop  offset="0" style="stop-color:#DEDFE3"/>
	<stop  offset="0.1783" style="stop-color:#DADBDF"/>
	<stop  offset="0.3611" style="stop-color:#CECFD3"/>
	<stop  offset="0.546" style="stop-color:#B9BCBF"/>
	<stop  offset="0.7324" style="stop-color:#9CA0A2"/>
	<stop  offset="0.9181" style="stop-color:#787D7E"/>
	<stop  offset="1" style="stop-color:#656B6C"/>
</linearGradient>
<g>
	<path class="st0" d="M338.8,1180c0,0,254.3,493.3,695.5,474.9s674-530,701.6-781.3s85.8-478-91.9-530s-355.4,39.8-643.4,104.2
		S87.6,411,338.8,1180z"/>
	<g>
		<path class="st1" d="M1036.4,1729.3c-96.5,0-190.1-18.9-278.3-56.2c-85.1-36-161.6-87.5-227.2-153.2s-117.2-142.1-153.2-227.2
			c-37.3-88.1-56.2-181.8-56.2-278.3s18.9-190.1,56.2-278.3c36-85.1,87.6-161.6,153.2-227.2S673,391.7,758.1,355.7
			c88.1-37.3,181.8-56.2,278.3-56.2s190.1,18.9,278.3,56.2c85.1,36,161.6,87.6,227.2,153.2s117.2,142.1,153.2,227.2
			c37.3,88.1,56.2,181.8,56.2,278.3s-18.9,190.1-56.2,278.3c-36,85.1-87.5,161.6-153.2,227.2s-142.1,117.2-227.2,153.2
			C1226.5,1710.4,1132.9,1729.3,1036.4,1729.3z M1036.4,301.6c-393.1,0-712.9,319.8-712.9,712.9s319.8,712.9,712.9,712.9
			s712.9-319.8,712.9-712.9S1429.5,301.6,1036.4,301.6z"/>
		<circle class="st2" cx="609.1" cy="1552.3" r="248.2"/>
		<g>
			<g>
				<g>
					<rect x="238.8" y="703.5" class="st3" width="274.5" height="375.7"/>
					<path class="st1" d="M514.2,1080.2H237.8V702.6h276.3V1080.2z M239.7,1078.3h272.6V704.4H239.7V1078.3z"/>
				</g>
				<g>
					<rect x="256.4" y="722.7" class="st2" width="239.1" height="337.3"/>
					<path class="st1" d="M496.5,1061h-241V721.8h241V1061z M257.4,1059.1h237.2V723.7H257.4V1059.1z"/>
				</g>
				<g>
					<path class="st3" d="M443.6,734.5H308.4v-7c0-23.6,19.2-42.8,42.8-42.8h49.6c23.6,0,42.8,19.2,42.8,42.8V734.5z"/>
					<path class="st1" d="M444.5,735.4H307.5v-0.9c0-28,22.8-50.7,50.7-50.7h35.6c28,0,50.7,22.8,50.7,50.7V735.4z M309.3,733.5
						h133.3c-0.5-26.5-22.2-48-48.9-48h-35.6C331.6,685.6,309.8,707,309.3,733.5z"/>
				</g>
				<g>
					<circle class="st3" cx="374.6" cy="683.7" r="20.4"/>
					<path class="st1" d="M374.6,705c-11.8,0-21.3-9.6-21.3-21.3c0-11.8,9.6-21.3,21.3-21.3c11.8,0,21.3,9.6,21.3,21.3
						C395.9,695.5,386.3,705,374.6,705z M374.6,664.2c-10.7,0-19.5,8.7-19.5,19.5c0,10.7,8.7,19.5,19.5,19.5
						c10.7,0,19.5-8.7,19.5-19.5C394,673,385.3,664.2,374.6,664.2z"/>
				</g>
				<g>
					<g>
						<path class="st3" d="M326.9,772l-7.6,28h-9.5l-4.4-18.2l-4.6,18.2h-9.4l-7.6-28h8.6l4,20l4.7-20h9.1l4.8,19.9l3.9-19.9H326.9z
							"/>
					</g>
				</g>
				<rect x="317.8" y="820.8" class="st3" width="151.7" height="3.3"/>
				<rect x="283.5" y="833.2" class="st3" width="186" height="3.3"/>
				<rect x="283.5" y="845.5" class="st3" width="186" height="3.3"/>
				<rect x="283.5" y="857.8" class="st3" width="186" height="3.3"/>
				<rect x="283.5" y="870.2" class="st3" width="186" height="3.3"/>
				<rect x="283.5" y="882.5" class="st3" width="186" height="3.3"/>
				<rect x="283.5" y="894.8" class="st3" width="186" height="3.3"/>
				<rect x="283.5" y="907.2" class="st3" width="186" height="3.3"/>
				<rect x="283.5" y="919.5" class="st3" width="186" height="3.3"/>
				<rect x="283.5" y="931.8" class="st3" width="186" height="3.3"/>
				<rect x="283.5" y="944.2" class="st3" width="186" height="3.3"/>
				<rect x="283.5" y="956.5" class="st3" width="186" height="3.3"/>
				<rect x="283.5" y="968.8" class="st3" width="186" height="3.3"/>
				<rect x="283.5" y="981.2" class="st3" width="186" height="3.3"/>
				<rect x="283.5" y="993.5" class="st3" width="186" height="3.3"/>
			</g>
			<g>
				<g>
					<path class="st2" d="M1495.6,1767.5h-281.1c-17.1,0-31-13.9-31-31v-169.1c0-17.1,13.9-31,31-31h281.1c17.1,0,31,13.9,31,31
						v169.1C1526.6,1753.6,1512.7,1767.5,1495.6,1767.5z"/>
					<path class="st1" d="M1501.8,1768.3h-293.6c-14.1,0-25.6-11.5-25.6-25.6v-181.6c0-14.1,11.5-25.6,25.6-25.6h293.6
						c14.1,0,25.6,11.5,25.6,25.6v181.6C1527.4,1756.8,1515.9,1768.3,1501.8,1768.3z M1208.3,1537.1c-13.2,0-24,10.8-24,24v181.6
						c0,13.2,10.8,24,24,24h293.6c13.2,0,24-10.8,24-24v-181.6c0-13.2-10.8-24-24-24H1208.3z"/>
				</g>
				<g>
					<g>
						<g>
							<circle class="st4" cx="1250" cy="1560.2" r="14.7"/>
							<path class="st1" d="M1250,1575.6c-8.5,0-15.5-6.9-15.5-15.5c0-8.5,6.9-15.5,15.5-15.5c8.5,0,15.5,6.9,15.5,15.5
								C1265.5,1568.7,1258.5,1575.6,1250,1575.6z M1250,1546.3c-7.7,0-13.9,6.2-13.9,13.9c0,7.7,6.2,13.9,13.9,13.9
								s13.9-6.2,13.9-13.9C1263.9,1552.5,1257.7,1546.3,1250,1546.3z"/>
						</g>
						<path class="st1" d="M1250,1564.4L1250,1564.4c-5.6,0-10.1-4.5-10.1-10.1v-31.2c0-5.6,4.5-10.1,10.1-10.1h0
							c5.6,0,10.1,4.5,10.1,10.1v31.2C1260.1,1559.9,1255.6,1564.4,1250,1564.4z"/>
					</g>
					<g>
						<g>
							<circle class="st4" cx="1320" cy="1560.2" r="14.7"/>
							<path class="st1" d="M1320,1575.6c-8.5,0-15.5-6.9-15.5-15.5c0-8.5,6.9-15.5,15.5-15.5c8.5,0,15.5,6.9,15.5,15.5
								C1335.5,1568.7,1328.6,1575.6,1320,1575.6z M1320,1546.3c-7.7,0-13.9,6.2-13.9,13.9c0,7.7,6.2,13.9,13.9,13.9
								s13.9-6.2,13.9-13.9C1333.9,1552.5,1327.7,1546.3,1320,1546.3z"/>
						</g>
						<path class="st1" d="M1320,1564.4L1320,1564.4c-5.6,0-10.1-4.5-10.1-10.1v-31.2c0-5.6,4.5-10.1,10.1-10.1h0
							c5.6,0,10.1,4.5,10.1,10.1v31.2C1330.1,1559.9,1325.6,1564.4,1320,1564.4z"/>
					</g>
					<g>
						<g>
							<circle class="st4" cx="1390.1" cy="1560.2" r="14.7"/>
							<path class="st1" d="M1390.1,1575.6c-8.5,0-15.5-6.9-15.5-15.5c0-8.5,6.9-15.5,15.5-15.5c8.5,0,15.5,6.9,15.5,15.5
								C1405.5,1568.7,1398.6,1575.6,1390.1,1575.6z M1390.1,1546.3c-7.7,0-13.9,6.2-13.9,13.9c0,7.7,6.2,13.9,13.9,13.9
								c7.7,0,13.9-6.2,13.9-13.9C1403.9,1552.5,1397.7,1546.3,1390.1,1546.3z"/>
						</g>
						<path class="st1" d="M1390.1,1564.4L1390.1,1564.4c-5.6,0-10.1-4.5-10.1-10.1v-31.2c0-5.6,4.5-10.1,10.1-10.1l0,0
							c5.6,0,10.1,4.5,10.1,10.1v31.2C1400.1,1559.9,1395.6,1564.4,1390.1,1564.4z"/>
					</g>
					<g>
						<g>
							<circle class="st4" cx="1460.1" cy="1560.2" r="14.7"/>
							<path class="st1" d="M1460.1,1575.6c-8.5,0-15.5-6.9-15.5-15.5c0-8.5,6.9-15.5,15.5-15.5c8.5,0,15.5,6.9,15.5,15.5
								C1475.6,1568.7,1468.6,1575.6,1460.1,1575.6z M1460.1,1546.3c-7.7,0-13.9,6.2-13.9,13.9c0,7.7,6.2,13.9,13.9,13.9
								c7.7,0,13.9-6.2,13.9-13.9C1474,1552.5,1467.7,1546.3,1460.1,1546.3z"/>
						</g>
						<path class="st1" d="M1460.1,1564.4L1460.1,1564.4c-5.6,0-10.1-4.5-10.1-10.1v-31.2c0-5.6,4.5-10.1,10.1-10.1l0,0
							c5.6,0,10.1,4.5,10.1,10.1v31.2C1470.2,1559.9,1465.7,1564.4,1460.1,1564.4z"/>
					</g>
				</g>
				<g>
					<rect x="1225.4" y="1607" class="st3" width="25.3" height="25.3"/>
					<rect x="1258.8" y="1607" class="st3" width="25.3" height="25.3"/>
					<rect x="1292.3" y="1607" class="st3" width="25.3" height="25.3"/>
					<rect x="1325.7" y="1607" class="st3" width="25.3" height="25.3"/>
					<rect x="1359.1" y="1607" class="st3" width="25.3" height="25.3"/>
					<rect x="1392.6" y="1607" class="st3" width="25.3" height="25.3"/>
					<rect x="1426" y="1607" class="st1" width="25.3" height="25.3"/>
					<rect x="1459.4" y="1607" class="st1" width="25.3" height="25.3"/>
				</g>
				<g>
					<rect x="1225.4" y="1638.9" class="st3" width="25.3" height="25.3"/>
					<rect x="1258.8" y="1638.9" class="st3" width="25.3" height="25.3"/>
					<rect x="1292.3" y="1638.9" class="st3" width="25.3" height="25.3"/>
					<rect x="1325.7" y="1638.9" class="st3" width="25.3" height="25.3"/>
					<rect x="1359.1" y="1638.9" class="st4" width="25.3" height="25.3"/>
					<rect x="1392.6" y="1638.9" class="st3" width="25.3" height="25.3"/>
					<rect x="1426" y="1638.9" class="st1" width="25.3" height="25.3"/>
					<rect x="1459.4" y="1638.9" class="st1" width="25.3" height="25.3"/>
				</g>
				<g>
					<rect x="1225.4" y="1670.7" class="st3" width="25.3" height="25.3"/>
					<rect x="1258.8" y="1670.7" class="st4" width="25.3" height="25.3"/>
					<rect x="1292.3" y="1670.7" class="st4" width="25.3" height="25.3"/>
					<rect x="1325.7" y="1670.7" class="st3" width="25.3" height="25.3"/>
					<rect x="1359.1" y="1670.7" class="st3" width="25.3" height="25.3"/>
					<rect x="1392.6" y="1670.7" class="st3" width="25.3" height="25.3"/>
					<rect x="1426" y="1670.7" class="st1" width="25.3" height="25.3"/>
					<rect x="1459.4" y="1670.7" class="st1" width="25.3" height="25.3"/>
				</g>
				<g>
					<rect x="1225.4" y="1702.5" class="st3" width="25.3" height="25.3"/>
					<rect x="1258.8" y="1702.5" class="st3" width="25.3" height="25.3"/>
					<rect x="1292.3" y="1702.5" class="st3" width="25.3" height="25.3"/>
					<rect x="1325.7" y="1702.5" class="st3" width="25.3" height="25.3"/>
					<rect x="1359.1" y="1702.5" class="st3" width="25.3" height="25.3"/>
					<rect x="1392.6" y="1702.5" class="st3" width="25.3" height="25.3"/>
					<rect x="1426" y="1702.5" class="st1" width="25.3" height="25.3"/>
					<rect x="1459.4" y="1702.5" class="st1" width="25.3" height="25.3"/>
				</g>
			</g>
			<g>
				<g>
					<g>
						<path class="st2" d="M702.7,247.3h294.6c6.5,0,11.7,5.2,11.7,11.7v131.3c0,6.5-5.2,11.7-11.7,11.7H778.8
							c-10.3,18.3-37,65-37,65l-21.1-65h-17.9c-6.5,0-11.7-5.2-11.7-11.7V259.1C691,252.6,696.3,247.3,702.7,247.3z"/>
						<path class="st1" d="M741.6,469.1l-21.5-66.2h-17.3c-6.9,0-12.5-5.6-12.5-12.5V259.1c0-6.9,5.6-12.5,12.5-12.5h294.6
							c6.9,0,12.5,5.6,12.5,12.5v131.3c0,6.9-5.6,12.5-12.5,12.5H779.2c-10.4,18.3-36.5,64.2-36.8,64.6L741.6,469.1z M702.7,248.1
							c-6,0-10.9,4.9-10.9,10.9v131.3c0,6,4.9,10.9,10.9,10.9h18.5l20.8,63.9c4.7-8.3,27-47.3,36.1-63.5l0.2-0.4h219
							c6,0,10.9-4.9,10.9-10.9V259.1c0-6-4.9-10.9-10.9-10.9H702.7z"/>
					</g>
					<g>
						<rect x="773.8" y="284" class="st3" width="194" height="8"/>
						<rect x="732.3" y="302.4" class="st3" width="235.5" height="8"/>
						<rect x="732.3" y="320.7" class="st3" width="235.5" height="8"/>
						<rect x="732.3" y="339.1" class="st3" width="235.5" height="8"/>
						<rect x="732.3" y="357.4" class="st3" width="235.5" height="8"/>
					</g>
				</g>
				<g>
					<g>
						<path class="st3" d="M1100.1,326.9H805.5c-6.5,0-11.7,5.2-11.7,11.7v131.3c0,6.5,5.2,11.7,11.7,11.7H1024
							c10.3,18.3,37,65,37,65l21.1-65h17.9c6.5,0,11.7-5.2,11.7-11.7V338.6C1111.8,332.1,1106.5,326.9,1100.1,326.9z"/>
						<path class="st1" d="M1061.2,548.6l-0.9-1.6c-0.3-0.5-26.4-46.3-36.8-64.6H805.5c-6.9,0-12.5-5.6-12.5-12.5V338.6
							c0-6.9,5.6-12.5,12.5-12.5h294.6c6.9,0,12.5,5.6,12.5,12.5v131.3c0,6.9-5.6,12.5-12.5,12.5h-17.3L1061.2,548.6z M805.5,327.7
							c-6,0-10.9,4.9-10.9,10.9v131.3c0,6,4.9,10.9,10.9,10.9h219l0.2,0.4c9.1,16.2,31.4,55.2,36.1,63.5l20.8-63.9h18.5
							c6,0,10.9-4.9,10.9-10.9V338.6c0-6-4.9-10.9-10.9-10.9H805.5z"/>
					</g>
					<g>
						<rect x="876.5" y="363.6" class="st4" width="194" height="8"/>
						<rect x="835" y="381.9" class="st4" width="235.5" height="8"/>
						<rect x="835" y="400.2" class="st4" width="235.5" height="8"/>
						<rect x="835" y="418.6" class="st4" width="235.5" height="8"/>
						<rect x="835" y="436.9" class="st4" width="235.5" height="8"/>
					</g>
				</g>
			</g>
			<g>
				<g>
					<rect x="1562.2" y="1093.1" class="st2" width="237.3" height="118"/>
					<path class="st1" d="M1800.3,1211.9h-238.9v-119.6h238.9V1211.9z M1563,1210.3h235.7v-116.4H1563V1210.3z"/>
				</g>
				<g>
					<path class="st2" d="M1763.8,997.7h-166c-19.7,0-35.7,16-35.7,35.7v59.7h237.3v-59.7C1799.5,1013.6,1783.5,997.7,1763.8,997.7z
						"/>
					<path class="st1" d="M1800.3,1093.9h-238.9v-67.7c0-16.1,13.1-29.3,29.3-29.3H1771c16.1,0,29.3,13.1,29.3,29.3V1093.9z
						 M1563,1092.3h235.7v-66.1c0-15.3-12.4-27.7-27.7-27.7h-180.3c-15.3,0-27.7,12.4-27.7,27.7V1092.3z"/>
				</g>
				<g>
					<rect x="1588.5" y="967.4" class="st2" width="184.7" height="243.7"/>
					<path class="st1" d="M1774,1211.9h-186.3V966.6H1774V1211.9z M1589.3,1210.3h183.1V968.2h-183.1V1210.3z"/>
				</g>
				<g>
					<path class="st3" d="M1772.7,1093.6c-37.2,0-70.3,17.3-91.9,44.2c-21.5-27-54.7-44.2-91.9-44.2h-26.8v117.5h93h51.3h93v-117.5
						H1772.7z"/>
					<path class="st1" d="M1800.3,1211.9h-238.9v-119.1h27.6c35.8,0,69.3,15.9,91.9,43.8c22.6-27.8,56-43.8,91.9-43.8h27.6V1211.9z
						 M1563,1210.3h235.7v-115.9h-26c-35.7,0-68.9,16-91.2,43.9l-0.6,0.8l-0.6-0.8c-22.3-27.9-55.6-43.9-91.2-43.9h-26V1210.3z"/>
				</g>
				<rect x="1620.9" y="1001.1" class="st3" width="138.2" height="3.7"/>
				<rect x="1603.8" y="1015.4" class="st3" width="155.3" height="3.7"/>
				<rect x="1603.8" y="1029.7" class="st3" width="155.3" height="3.7"/>
				<rect x="1603.8" y="1043.9" class="st3" width="155.3" height="3.7"/>
				<rect x="1603.8" y="1058.2" class="st3" width="155.3" height="3.7"/>
				<rect x="1603.8" y="1072.5" class="st3" width="155.3" height="3.7"/>
			</g>
			<g>
				<g>
					<circle class="st3" cx="1620.1" cy="596.7" r="188.8"/>
					<path class="st1" d="M1620.1,786.8c-104.8,0-190.1-85.3-190.1-190.1s85.3-190.1,190.1-190.1c104.8,0,190.1,85.3,190.1,190.1
						S1724.9,786.8,1620.1,786.8z M1620.1,409.2c-103.4,0-187.6,84.1-187.6,187.6s84.1,187.6,187.6,187.6
						c103.4,0,187.6-84.1,187.6-187.6S1723.5,409.2,1620.1,409.2z"/>
				</g>
				<g>
					<circle class="st2" cx="1620.1" cy="596.7" r="154.5"/>
					<path class="st1" d="M1620.1,752.5c-85.9,0-155.7-69.9-155.7-155.7S1534.2,441,1620.1,441c85.9,0,155.7,69.9,155.7,155.7
						S1706,752.5,1620.1,752.5z M1620.1,443.5c-84.5,0-153.2,68.7-153.2,153.2S1535.6,750,1620.1,750c84.5,0,153.2-68.7,153.2-153.2
						S1704.6,443.5,1620.1,443.5z"/>
				</g>
				<g>
					<rect x="1612.5" y="515.2" class="st3" width="14.8" height="78.7"/>
					<path class="st1" d="M1628.5,595.1h-17.3V514h17.3V595.1z M1613.7,592.6h12.3v-76.2h-12.3V592.6z"/>
				</g>
				<g>
					
						<rect x="1668.7" y="540.5" transform="matrix(-1.836970e-16 1 -1 -1.836970e-16 2270.7 -1077.2344)" class="st3" width="10.5" height="112.5"/>
					<path class="st1" d="M1731.5,603.2h-115v-13h115V603.2z M1618.9,600.7h110v-8h-110V600.7z"/>
				</g>
				<g>
					<circle class="st3" cx="1620.1" cy="596.7" r="9.9"/>
					<path class="st1" d="M1620.1,607.8c-6.1,0-11.1-5-11.1-11.1s5-11.1,11.1-11.1c6.1,0,11.1,5,11.1,11.1
						S1626.2,607.8,1620.1,607.8z M1620.1,588.1c-4.7,0-8.6,3.9-8.6,8.6c0,4.7,3.9,8.6,8.6,8.6c4.7,0,8.6-3.9,8.6-8.6
						C1628.7,592,1624.8,588.1,1620.1,588.1z"/>
				</g>
			</g>
			<g>
				<g>
					<g>
						<g>
							<path class="st3" d="M1340.1,1206.4H732.7V806.9c0-11.8,9.6-21.4,21.4-21.4h564.4c11.8,0,21.4,9.6,21.4,21.4V1206.4z"/>
							<path class="st1" d="M1341,1207.3H731.8V805c0-11.3,9.2-20.5,20.5-20.5h568.2c11.3,0,20.5,9.2,20.5,20.5V1207.3z
								 M733.6,1205.5h605.5V805c0-10.3-8.4-18.6-18.6-18.6H752.3c-10.3,0-18.6,8.4-18.6,18.6V1205.5z"/>
						</g>
						<g>
							<rect x="762" y="809.2" class="st4" width="548.7" height="373.5"/>
							<path class="st1" d="M1311.6,1183.6H761.1V808.3h550.5V1183.6z M763,1181.8h546.9V810.1H763V1181.8z"/>
						</g>
						<g>
							<path class="st1" d="M901.6,846.8c-0.5,0.8-1.2,1.5-2.1,2c-1,0.5-2.1,0.8-3.6,0.8h-2.6v6.2h-4.2v-17.4h6.9
								c1.4,0,2.6,0.2,3.5,0.7c1,0.5,1.7,1.1,2.2,2c0.5,0.8,0.7,1.8,0.7,2.9C902.3,845,902.1,845.9,901.6,846.8z M897.4,845.6
								c0.4-0.4,0.6-0.9,0.6-1.6c0-0.7-0.2-1.2-0.6-1.6c-0.4-0.4-1-0.6-1.8-0.6h-2.3v4.4h2.3C896.4,846.2,897,846,897.4,845.6z"/>
							<path class="st1" d="M913.4,855.8l-3.6-6.6h-1v6.6h-4.2v-17.4h7.1c1.4,0,2.5,0.2,3.5,0.7c1,0.5,1.7,1.1,2.2,2
								c0.5,0.8,0.7,1.8,0.7,2.8c0,1.2-0.3,2.2-1,3.1c-0.7,0.9-1.6,1.6-2.9,1.9l4,6.9H913.4z M908.7,846.2h2.6
								c0.8,0,1.4-0.2,1.7-0.6c0.4-0.4,0.6-0.9,0.6-1.6c0-0.7-0.2-1.2-0.6-1.6c-0.4-0.4-1-0.6-1.7-0.6h-2.6V846.2z"/>
							<path class="st1" d="M924.4,854.8c-1.4-0.8-2.4-1.8-3.2-3.2c-0.8-1.4-1.2-2.9-1.2-4.6c0-1.7,0.4-3.2,1.2-4.6
								c0.8-1.4,1.9-2.4,3.2-3.2c1.4-0.8,2.9-1.1,4.5-1.1s3.1,0.4,4.5,1.1c1.4,0.8,2.4,1.8,3.2,3.2c0.8,1.4,1.2,2.9,1.2,4.6
								c0,1.7-0.4,3.2-1.2,4.6c-0.8,1.4-1.9,2.4-3.2,3.2c-1.4,0.8-2.8,1.1-4.5,1.1S925.7,855.6,924.4,854.8z M932.2,850.7
								c0.8-0.9,1.2-2.1,1.2-3.7c0-1.5-0.4-2.8-1.2-3.7c-0.8-0.9-1.9-1.4-3.3-1.4c-1.4,0-2.5,0.5-3.4,1.4c-0.8,0.9-1.2,2.1-1.2,3.7
								c0,1.5,0.4,2.8,1.2,3.7c0.8,0.9,2,1.4,3.4,1.4C930.2,852.1,931.3,851.6,932.2,850.7z"/>
							<path class="st1" d="M951,838.4v11.8c0,1.8-0.5,3.2-1.5,4.2c-1,1-2.4,1.5-4.2,1.5c-1.8,0-3.3-0.5-4.4-1.6
								c-1.1-1-1.7-2.5-1.7-4.4h4.2c0,0.7,0.1,1.3,0.4,1.6c0.3,0.4,0.7,0.6,1.3,0.6c0.5,0,0.9-0.2,1.2-0.5c0.3-0.3,0.4-0.8,0.4-1.4
								v-11.8H951z"/>
							<path class="st1" d="M958.6,841.8v3.5h5.7v3.3h-5.7v3.8h6.4v3.4h-10.6v-17.4H965v3.4H958.6z"/>
							<path class="st1" d="M968.2,842.5c0.7-1.3,1.8-2.4,3.1-3.1c1.3-0.8,2.8-1.1,4.5-1.1c2.1,0,3.8,0.5,5.3,1.6
								c1.5,1.1,2.4,2.6,2.9,4.5h-4.7c-0.3-0.7-0.8-1.3-1.5-1.7c-0.6-0.4-1.4-0.6-2.2-0.6c-1.3,0-2.4,0.5-3.2,1.4
								c-0.8,0.9-1.2,2.1-1.2,3.6c0,1.5,0.4,2.7,1.2,3.6c0.8,0.9,1.9,1.4,3.2,1.4c0.8,0,1.5-0.2,2.2-0.6c0.6-0.4,1.1-0.9,1.5-1.7
								h4.7c-0.5,1.9-1.5,3.4-2.9,4.4c-1.5,1.1-3.2,1.6-5.3,1.6c-1.7,0-3.2-0.4-4.5-1.1c-1.3-0.8-2.4-1.8-3.1-3.1
								c-0.7-1.3-1.1-2.9-1.1-4.6C967,845.4,967.4,843.8,968.2,842.5z"/>
							<path class="st1" d="M999.1,838.4v3.4h-4.6v14h-4.2v-14h-4.6v-3.4H999.1z"/>
							<path class="st1" d="M1026.2,838.4v17.4h-4.2v-10.4l-3.9,10.4h-3.4l-3.9-10.4v10.4h-4.2v-17.4h5l4.9,12l4.8-12H1026.2z"/>
							<path class="st1" d="M1040,852.7h-6.5l-1,3.1h-4.4l6.3-17.4h4.9l6.3,17.4h-4.5L1040,852.7z M1038.9,849.5l-2.2-6.4l-2.1,6.4
								H1038.9z"/>
							<path class="st1" d="M1063,855.8h-4.2l-7.1-10.7v10.7h-4.2v-17.4h4.2l7.1,10.8v-10.8h4.2V855.8z"/>
							<path class="st1" d="M1076.9,852.7h-6.5l-1,3.1h-4.4l6.3-17.4h4.9l6.3,17.4h-4.5L1076.9,852.7z M1075.8,849.5l-2.2-6.4
								l-2.1,6.4H1075.8z"/>
							<path class="st1" d="M1095.8,843.9c-0.3-0.6-0.8-1-1.3-1.3c-0.6-0.3-1.3-0.5-2.1-0.5c-1.4,0-2.5,0.4-3.3,1.3
								c-0.8,0.9-1.2,2.1-1.2,3.6c0,1.6,0.4,2.8,1.3,3.7c0.9,0.9,2.1,1.3,3.6,1.3c1,0,1.9-0.3,2.6-0.8c0.7-0.5,1.2-1.3,1.6-2.3h-5.4
								V846h9.2v3.9c-0.3,1.1-0.8,2-1.6,2.9c-0.8,0.9-1.7,1.6-2.9,2.2c-1.2,0.6-2.5,0.8-3.9,0.8c-1.7,0-3.2-0.4-4.6-1.1
								c-1.3-0.8-2.4-1.8-3.1-3.1c-0.8-1.3-1.1-2.9-1.1-4.6c0-1.7,0.4-3.2,1.1-4.6c0.8-1.3,1.8-2.4,3.1-3.1c1.3-0.8,2.9-1.1,4.6-1.1
								c2.1,0,3.8,0.5,5.3,1.5c1.4,1,2.4,2.4,2.8,4.2H1095.8z"/>
							<path class="st1" d="M1107.4,841.8v3.5h5.7v3.3h-5.7v3.8h6.4v3.4h-10.6v-17.4h10.6v3.4H1107.4z"/>
							<path class="st1" d="M1136.2,838.4v17.4h-4.2v-10.4l-3.9,10.4h-3.4l-3.9-10.4v10.4h-4.2v-17.4h5l4.9,12l4.8-12H1136.2z"/>
							<path class="st1" d="M1143.5,841.8v3.5h5.7v3.3h-5.7v3.8h6.4v3.4h-10.6v-17.4h10.6v3.4H1143.5z"/>
							<path class="st1" d="M1168.2,855.8h-4.2l-7.1-10.7v10.7h-4.2v-17.4h4.2l7.1,10.8v-10.8h4.2V855.8z"/>
							<path class="st1" d="M1183.7,838.4v3.4h-4.6v14h-4.2v-14h-4.6v-3.4H1183.7z"/>
						</g>
						<g>
							<rect x="823.1" y="897.9" class="st3" width="4.2" height="255.5"/>
							<rect x="907.6" y="897.9" class="st3" width="4.2" height="255.5"/>
							<rect x="992.1" y="897.9" class="st3" width="4.2" height="255.5"/>
							<rect x="1076.5" y="897.9" class="st3" width="4.2" height="255.5"/>
							<rect x="1161" y="897.9" class="st3" width="4.2" height="255.5"/>
							<rect x="1245.5" y="897.9" class="st3" width="4.2" height="255.5"/>
						</g>
						<g>
							<path class="st3" d="M1360.2,1243.4H712.6c-21.3,0-38.5-17.3-38.5-38.5v-5.4h724.6v5.4
								C1398.7,1226.2,1381.4,1243.4,1360.2,1243.4z"/>
							<path class="st1" d="M1354.7,1244.3H718.1c-24.8,0-44.9-20.1-44.9-44.9v-0.9h726.4v0.9
								C1399.6,1224.2,1379.5,1244.3,1354.7,1244.3z M675,1200.3c0.5,23.3,19.6,42.2,43.1,42.2h636.6c23.4,0,42.6-18.8,43.1-42.2
								H675z"/>
						</g>
						<g>
							<path class="st3" d="M1077.6,1214.8h-82.3c-7.4,0-13.5-6-13.5-13.5v-1.9H1091v1.9C1091,1208.8,1085,1214.8,1077.6,1214.8z"/>
							<path class="st1" d="M1075.7,1215.7h-78.5c-9,0-16.3-7.3-16.3-16.3v-0.9h111.1v0.9
								C1091.9,1208.4,1084.6,1215.7,1075.7,1215.7z M982.7,1200.3c0.5,7.5,6.8,13.5,14.4,13.5h78.5c7.7,0,13.9-6,14.4-13.5H982.7z"
								/>
						</g>
					</g>
					<rect x="833.9" y="898.1" class="st3" width="68.4" height="14.9"/>
					<rect x="918.1" y="898.1" class="st3" width="68.4" height="14.9"/>
					<rect x="1002.2" y="898.1" class="st3" width="68.4" height="14.9"/>
					<rect x="1086.3" y="898.1" class="st3" width="68.4" height="14.9"/>
					<rect x="1170.4" y="898.1" class="st3" width="68.4" height="14.9"/>
					<rect x="823" y="972.5" class="st1" width="258.3" height="11.2"/>
					<rect x="826.1" y="1073.1" class="st1" width="193.4" height="11.2"/>
					<rect x="866.6" y="1027" class="st0" width="125.5" height="11.2"/>
					<g>
						<rect x="1061.5" y="1021.9" class="st0" width="209.4" height="131.2"/>
						<path class="st1" d="M1271.8,1154h-211.2V1021h211.2V1154z M1062.4,1152.2H1270v-129.4h-207.6V1152.2z"/>
					</g>
					<g>
						<rect x="1071.3" y="1031.7" class="st3" width="209.4" height="131.2"/>
						<path class="st1" d="M1281.6,1163.8h-211.2v-133.1h211.2V1163.8z M1072.2,1162h207.6v-129.4h-207.6V1162z"/>
					</g>
					<g>
						<rect x="1061.5" y="1021.9" class="st0" width="209.4" height="131.2"/>
						<path class="st1" d="M1271.8,1154h-211.2V1021h211.2V1154z M1062.4,1152.2H1270v-129.4h-207.6V1152.2z"/>
					</g>
					<g>
						<rect x="1081.1" y="1037.9" class="st3" width="67" height="7.9"/>
						<rect x="1081.1" y="1057" class="st3" width="169.4" height="7.9"/>
						<rect x="1081.1" y="1070" class="st3" width="169.4" height="7.9"/>
						<rect x="1081.1" y="1083.1" class="st3" width="169.4" height="7.9"/>
						<rect x="1081.1" y="1096.1" class="st3" width="169.4" height="7.9"/>
					</g>
				</g>
				<rect x="1237.3" y="827.1" class="st3" width="56.8" height="3.7"/>
				<rect x="1237.3" y="833.9" class="st3" width="56.8" height="3.7"/>
				<rect x="1237.3" y="840.6" class="st3" width="56.8" height="3.7"/>
			</g>
			<g>
				<polygon class="st1" points="801.4,1665.1 428.8,1665.1 428.8,1431.9 430.4,1431.9 430.4,1663.5 801.4,1663.5 				"/>
				<g>
					<rect x="456.1" y="1502.3" class="st4" width="42" height="144.1"/>
					<path class="st1" d="M498.9,1647.2h-43.6v-145.7h43.6V1647.2z M456.9,1645.6h40.4v-142.5h-40.4V1645.6z"/>
				</g>
				<g>
					<rect x="506.5" y="1418.5" class="st3" width="42" height="227.9"/>
					<path class="st1" d="M549.3,1647.2h-43.6v-229.5h43.6V1647.2z M507.3,1645.6h40.4v-226.3h-40.4V1645.6z"/>
				</g>
				<g>
					<rect x="557" y="1463.4" class="st4" width="42" height="183"/>
					<path class="st1" d="M599.8,1647.2h-43.6v-184.6h43.6V1647.2z M557.8,1645.6h40.4v-181.4h-40.4V1645.6z"/>
				</g>
				<g>
					<rect x="607.4" y="1433.1" class="st3" width="42" height="213.2"/>
					<path class="st1" d="M650.2,1647.2h-43.6v-214.8h43.6V1647.2z M608.2,1645.6h40.4v-211.7h-40.4V1645.6z"/>
				</g>
				<g>
					<rect x="657.9" y="1516.6" class="st4" width="42" height="129.8"/>
					<path class="st1" d="M700.7,1647.2h-43.6v-131.4h43.6V1647.2z M658.7,1645.6h40.4v-128.2h-40.4V1645.6z"/>
				</g>
				<g>
					<rect x="708.4" y="1463.4" class="st3" width="42" height="183"/>
					<path class="st1" d="M751.2,1647.2h-43.6v-184.6h43.6V1647.2z M709.2,1645.6h40.4v-181.4h-40.4V1645.6z"/>
				</g>
			</g>
		</g>
		<circle class="st3" cx="1299.3" cy="342.1" r="46"/>
		<circle class="st3" cx="1654.7" cy="1386.8" r="27.6"/>
		<circle class="st3" cx="531.8" cy="500.6" r="32.2"/>
	</g>
</g>
</svg>
