<?xml version="1.0" encoding="UTF-8" standalone="no"?><svg xmlns="http://www.w3.org/2000/svg" xmlns:xlink="http://www.w3.org/1999/xlink" fill="#000000" height="556.8" preserveAspectRatio="xMidYMid meet" version="1" viewBox="101.5 93.2 546.9 556.8" width="546.9" zoomAndPan="magnify"><g><g><g><g><g fill="#ffffff" id="change1_29"><path d="M194.8100891,642.3240356c0,3.5889893-2.910141,6.4992676-6.4970093,6.4992676 c-3.5889282,0-6.4991913-2.9102783-6.4991913-6.4992676c0-3.586792,2.9102631-6.4970093,6.4991913-6.4970093 C191.8999481,635.8270264,194.8100891,638.7372437,194.8100891,642.3240356z"/><path d="M246.3302155,642.3240356c0,3.5889893-2.9101563,6.4992676-6.4970245,6.4992676 c-3.5889282,0-6.4991913-2.9102783-6.4991913-6.4992676c0-3.586792,2.9102631-6.4970093,6.4991913-6.4970093 C243.4200592,635.8270264,246.3302155,638.7372437,246.3302155,642.3240356z"/></g><g><g><g id="change2_11"><path d="M565.7015991,103.6975632c-13.3085938-1.9941406-28.4130859-3.0043945-44.9023438-3.0043945 c-0.2255859,0-0.4501953,0-0.6757813,0.0004883c-0.0009766,0-0.0009766,0-0.0009766,0 c-0.1933594,0-0.3496094-0.15625-0.3496094-0.3496094c-0.0009766-0.1933594,0.1552734-0.3500977,0.3486328-0.3505859 c16.8222656-0.059082,32.1591797,0.9853516,45.6835938,3.0117188 c0.1914063,0.0288086,0.3232422,0.2070313,0.2939453,0.3979492 C566.0720825,103.5881958,565.9014282,103.7253189,565.7015991,103.6975632z" fill="#d4d4d4"/></g><g id="change2_16"><path d="M469.0854187,103.4919968c-0.1777344,0-0.3300781-0.1342773-0.3486328-0.3149414 c-0.0185547-0.1923828,0.1210938-0.3637695,0.3134766-0.3833008 c14.2070313-1.4370117,27.9140625-2.3310547,40.7392578-2.6577148 c0.2060547,0.0234375,0.3544922,0.1479492,0.3583984,0.3413086c0.0048828,0.1933594-0.1474609,0.3535156-0.3408203,0.3588867 c-12.8076172,0.3256836-26.4970703,1.21875-40.6865234,2.6538086 C469.1088562,103.4915085,469.0971375,103.4919968,469.0854187,103.4919968z" fill="#d4d4d4"/></g><g id="change2_20"><path d="M639.0023804,267.3508911c-0.1884766-0.0454102-0.3037109-0.234375-0.2578125-0.4223633 c5.4492188-22.5756836,8.5673828-46.8032227,9.0166016-70.0634766 c0.0029297-0.1928711,0.1699219-0.3554688,0.3564453-0.3432617c0.1933594,0.0039063,0.3466797,0.1635742,0.3427734,0.3569336 c-0.4501953,23.3100586-3.5742188,47.5898438-9.0361328,70.2138672 C639.3809814,267.2745972,639.197998,267.3963013,639.0023804,267.3508911z" fill="#d4d4d4"/></g><g><g id="change1_23"><path d="M534.1890259,224.5331116c-0.0664063,1.4868774-1.3252563,2.6437531-2.8120117,2.5773163 c-1.4927979-0.0666809-2.6434937-1.331192-2.5770874-2.8180695 c0.0664063-1.4868927,1.3253174-2.6437378,2.8181152-2.5770569 C533.1047974,221.781723,534.2554932,223.0462341,534.1890259,224.5331116z" fill="#ffffff"/></g><g id="change1_4"><path d="M533.6427002,236.7623901c-0.0664063,1.4868927-1.3252563,2.6437531-2.8120728,2.5773315 c-1.4927368-0.0666962-2.6434326-1.3312073-2.5770264-2.8180847s1.3253174-2.6437378,2.8180542-2.5770569 C532.5584717,234.0110016,533.7091064,235.2755127,533.6427002,236.7623901z" fill="#ffffff"/></g><g id="change1_9"><path d="M533.0963745,248.991684c-0.0664673,1.4868774-1.3252563,2.6437378-2.8120728,2.5773163 c-1.4927368-0.0666809-2.6434937-1.331192-2.5770264-2.8180847 c0.0664063-1.4868774,1.3253174-2.6437378,2.8180542-2.5770416 C532.012146,246.2402954,533.1627808,247.5047913,533.0963745,248.991684z" fill="#ffffff"/></g><g id="change1_35"><path d="M532.5500488,261.2209778c-0.0664673,1.4868774-1.3252563,2.6437378-2.8120728,2.577301 c-1.4927979-0.0666809-2.6434937-1.3311768-2.5770874-2.8180847 c0.0664673-1.4868774,1.3253174-2.6437378,2.8181152-2.5770264 C531.4658203,258.469574,532.6164551,259.7340698,532.5500488,261.2209778z" fill="#ffffff"/></g></g><g id="change1_15"><path d="M611.7238159,172.954483c0.0172729,3.4694977-1.4125366,6.7117004-3.8932495,9.4266663 c-4.2930298,4.696106-11.7179565,7.8279419-20.1765137,7.876236 c-3.8623047,0.0206909-7.5145264-0.602951-10.7566528-1.7260895c-0.5064697-0.1757965-0.9992065-0.3618774-1.4815674-0.565094 l-7.2732544,5.5231323l1.2230225-9.044281c-3.7003784-2.9873352-5.9536133-6.9013062-5.9743042-11.2047424 c-0.0586548-9.4783325,10.718689-17.2236633,24.0594482-17.2995453 C600.7983398,155.8581696,611.6652832,163.4828796,611.7238159,172.954483z" fill="#ffffff"/></g></g><g><g><g><g id="change1_28"><path d="M335.8218689,447.8265381c8.1904297,2.4703064,5.2319031,5.09552-2.1063843,4.2925415 c7.0966187,2.453949,4.32724,4.8965454-2.2097778,3.6405029c7.6937561,3.0802002-1.192627,3.1625671-2.1140137,3.0707397 c-1.734436-0.1743164-3.9025574-0.0505066-7.2751465-1.1147461l-1.7758789-14.974762 c0,0,8.7285767-2.7382813,15.2989807-2.215271c4.4475403,0.3542175,15.1863098,4.6305847,15.0538025,7.1318665 C350.5242615,450.9130249,341.2320251,448.2425842,335.8218689,447.8265381z" fill="#ffffff"/></g><g><g><g id="change1_5"><path d="M102.036 462.884H434.235V481.718H102.036z" fill="#ffffff"/></g><g fill="#ffffff" id="change1_50"><path d="M379.563 481.718H398.397V648.358H379.563z"/><path d="M137.875 481.718H156.709V648.358H137.875z"/></g><g><g><g id="change1_7"><path d="M353.3527222,632.499939c0.5057068,0.5718994,0.89328,1.2457886,1.146698,1.9959717 c0.0484314,0.1407471,0.087677,0.2838135,0.1268311,0.4266968 c0.326416,1.2390747-0.3573608,2.5087891-1.5626221,2.9352417l-2.3590393,0.8208618l-25.207428,8.7481689 l-3.0815735,1.067688c-1.5926208,0.5535889-3.2469482-0.6277466-3.2467651-2.3087158l-0.0007629-2.7521362 l-0.0023193-9.097229c0.0036011-0.6004639,0.3579712-1.1522827,0.9199829-1.3706055 c0.8798828-0.3483887,2.327179-0.6262817,3.9292297,0.213623 c2.6436462,1.3916016,4.0647278-1.0673828,4.0647278-1.0673828s4.3728333-8.6021118,7.7331543-5.1213989 c2.6454163,2.7329102,8.7239075,3.321106,12.9827271,3.3720703 C350.5935059,630.3793335,352.2433472,631.1930542,353.3527222,632.499939z" fill="#ffffff"/></g></g><g><g id="change1_19"><path d="M304.0990906,630.2835083c0.4078979,0.6452637,0.6828613,1.3724365,0.8132324,2.1534424 c0.0252991,0.1466675,0.0412292,0.2941284,0.0570374,0.4414673 c0.1243591,1.2753296-0.753418,2.4194946-2.011322,2.6480103l-2.4598694,0.4335938l-26.2810364,4.6102905 l-3.2125244,0.5618286c-1.660614,0.2921753-3.1050415-1.1382446-2.8363953-2.7976074l0.4387512-2.7169189 l1.4505615-8.980835c0.0994568-0.5921631,0.5374146-1.0803223,1.1270752-1.2061157 c0.9242249-0.2033691,2.3973389-0.246582,3.844696,0.8383789 c2.3874512,1.7959595,4.1830139-0.404541,4.1830139-0.404541s5.6904907-7.793335,8.4518127-3.8206787 c2.1750183,3.1203003,8.0815735,4.6716919,12.2775879,5.4020996 C301.7139587,627.7493896,303.2126465,628.8161621,304.0990906,630.2835083z" fill="#ffffff"/></g></g><g id="change1_38"><path d="M289.2985229,616.6694946c0.3406982,2.5321045-23.3407288,5.7167969-23.6813965,3.1846313 l-9.6290741-28.055603l-20.20224-58.854126h39.4199371l13.1399841,78.0689087L289.2985229,616.6694946z" fill="#ffffff"/></g><g id="change2_6"><path d="M289.2985229,616.6694946c0.3406982,2.5321045-23.3407288,5.7167969-23.6813965,3.1846313 l-9.6290741-28.055603c0.8026581-0.2050171,1.7265778-0.1992188,2.6678314,0.0462036 c1.8507996,0.4850464,3.4416809,1.8247681,4.4752808,3.4041138 c1.4580688,2.2260742,2.0268555,4.8967896,2.6101074,7.4924316 c0.5832214,2.5956421,1.2444153,5.2634888,2.8439636,7.3885498 c0.3984375,0.5283813,0.8604126,1.0249634,1.4320984,1.3599243 c0.5081482,0.2944946,1.0827332,0.4503784,1.6543884,0.5889893 c2.04422,0.496582,4.1317139,0.822876,6.2307739,0.9700928 c0.9671936,0.0693359,1.9431152,0.1010742,2.8959351-0.0721436 c1.2934875-0.2367554,2.4859009-0.8431396,3.7303162-1.2617798 c1.2299805-0.4157104,2.5205994-0.6525269,3.8169861-0.7015991L289.2985229,616.6694946z" fill="#d4d4d4"/></g><g id="change1_37"><path d="M313.7133179,627.0665283l-14.9388123-32.3114624l-24.8362427-53.7147827l-70.9402618-4.5560913 l3.5311279-23.6236572l38.8944397-17.4766846c0,0,43.3003998,2.7284851,53.697464,11.7107849 c15.8771057,13.7174377,30.8851318,87.316864,34.6732178,107.0888977 c0.5976868,3.1124878,0.9153137,4.8910522,0.9153137,4.8910522 C335.9077454,622.218811,314.911499,630.2108154,313.7133179,627.0665283z" fill="#ffffff"/></g><g id="change2_1"><path d="M313.7133179,627.0665283l-14.9388123-32.3114624 c0.664093-0.3060303,1.4205933-0.4561768,2.1712341-0.4157715 c2.1048279,0.1155396,3.9498596,1.4032593,5.5465088,2.7747192 c1.2385864,1.0625,2.4137268,2.2145386,3.3376465,3.5599976 c3.1933289,4.6456299,3.0836487,11.1102295,6.7533569,15.3920288 c0.5601196,0.6525269,1.2126465,1.2473145,1.9921875,1.6053467 c2.1106262,0.9556885,4.5387878-0.0057983,6.6955872-0.848877 c2.7746887-1.0827637,5.6243896-1.9633789,8.5232239-2.6389771 c0.5976868,3.1124878,0.9153137,4.8910522,0.9153137,4.8910522 C335.9077454,622.218811,314.911499,630.2108154,313.7133179,627.0665283z" fill="#d4d4d4"/></g><g id="change2_17"><path d="M324.6920776,459.7740173c4.1274719-0.3026733,2.7505188-19.0794067-1.3769531-18.7767334 l-46.8930359-4.8053894c0,0-14.7666016-25.2374573-32.2180176-36.3795166 c-29.1703644-18.6241455-63.5262756-12.1407776-68.0536804,8.0816345 c-2.5121765,11.2210083-5.014801,39.6942749-5.014801,39.6942749l19.742981,68.7253723 c24.3724976,11.4586792,35.6610565-17.1124573,62.0281372-20.3115845l-6.0841827-51.2895203 c0,0,4.3621216,13.3607483,20.5890656,17.0923157 C281.3762207,465.0162354,324.6920776,459.7740173,324.6920776,459.7740173z" fill="#d4d4d4"/></g><g id="change1_12"><path d="M273.9382629,541.0402832c-12.3052063,11.6443481-68.8132324,11.7598267-94.5112762,4.6109619 c-29.9449158-8.3297729-41.7225647-59.9494019-43.2390137-97.8968201 c-1.5165253-37.9473877,38.2067566-37.1447144,38.2067566-37.1447144 c60.7385864-2.9075012,44.6509705,55.020813,42.3206787,91.6718445 C214.7594147,533.0223389,273.9382629,541.0402832,273.9382629,541.0402832z" fill="#ffffff"/></g><g id="change3_6"><path d="M233.5594177,539.7980347c-2.8599854,0.1099854-5.9100342,0.1800537-9.1400146,0.1800537 c-16.0999756,0-32.2600098-1.7199707-42.1699219-4.4699707 c-22.2399902-6.1900635-34.0100098-50.0500488-35.5400391-88.1700439 c-0.3100586-7.9100342,1.5200195-13.8199463,5.5900879-18.0699463 c7.7299805-8.0300293,21.329834-8.130127,21.8999023-8.130127l0.3599854,0.0100098l0.3399658-0.0200195 c1.2900391-0.0599365,2.5700684-0.0898438,3.7900391-0.0898438c11.3500977,0,19.1799316,2.5698242,23.9299316,7.8498535 c9.9700928,11.1101074,7.420166,34.8601074,5.170166,55.8100586 c-0.6401367,5.9399414-1.2399902,11.5400391-1.5800781,16.9199219 C205.4894714,512.8080444,209.9093933,528.078064,233.5594177,539.7980347z" fill="#cdf3e5"/></g><g id="change1_13"><path d="M221.6511383,546.7694092v86.7478027h-15.1581726v-86.7478027 C206.4929657,544.0045166,221.6511383,544.0045166,221.6511383,546.7694092z" fill="#ffffff"/></g><g id="change1_14"><path d="M257.4533081,640.9252319v-4.5515747c0-2.2825928-1.8504333-4.1330566-4.1330414-4.1330566 h-78.4964294c-2.2826233,0-4.1330414,1.8504639-4.1330414,4.1330566v4.5515747H257.4533081z" fill="#ffffff"/></g></g></g><g id="change1_1"><path d="M246.823 444.713L240.994 428.5" fill="#ffffff"/></g></g><g><g fill="#ffffff" id="change1_44"><path d="M240.1430054,365.6855774c-1.0820618,1.5896606-3.6103516-0.230072-3.6103516-0.230072 s-1.2640839,7.5466309-8.8202972,9.8833008c-0.0382233,0.1150513-0.0574036,0.2202454-0.0669861,0.3257141 c0,0.0095825-0.0095825,0.0095825,0,0.019165c-0.1532593,0.7565918-0.2585907,1.5417175-0.3255768,2.355835 c-0.3448639,3.6871643-0.0095825,7.9008484,0.5171814,12.2487488l-26.7767639-2.0687256 c3.8113098-6.0965576,6.8885803-11.7722473,7.3646088-15.954834c0,0-13.4745941-15.6962585-1.3407745-22.8119507 c12.1434174-7.1346741,26.134964-1.0151978,26.134964-1.0151978s5.0373993-0.4021606,4.7692108,8.6001587 C237.9882202,357.0377197,241.6178589,363.5116272,240.1430054,365.6855774z"/><path d="M227.6677704,363.6527405c0.2687073-2.4213257-1.4819183-4.6095276-3.9033051-4.8782349 s-4.6003876,1.4834595-4.8690948,3.9047852s1.4740906,4.5996399,3.8954773,4.8683472"/></g></g></g><g><g><g><g id="change2_2"><path d="M472.2038574,347.0470276l-25.5782776,80.5284729 c-0.5533752,1.742157-2.1709595,2.9255981-3.9989014,2.9255981H304.7127075 c-2.8388367,0-4.8583069-2.7603149-3.9989014-5.4659424l25.1211853-79.0894165 c0.5533752-1.742157,2.1709595-2.9255981,3.9989014-2.9255981h139.4238586 C471.3492126,343.0201416,472.8369751,345.0537415,472.2038574,347.0470276z" fill="#d4d4d4"/></g><g><g><g><g id="change1_32"><path d="M467.6166992,347.0470276l-25.5782776,80.5284729 c-0.5533752,1.742157-2.1709595,2.9255981-3.9989014,2.9255981H300.1255493 c-2.8388672,0-4.8583069-2.7603149-3.9989014-5.4659424l25.1211853-79.0894165 c0.5533447-1.742157,2.1709595-2.9255981,3.9989014-2.9255981h139.4238586 C466.7620544,343.0201416,468.2498169,345.0537415,467.6166992,347.0470276z" fill="#ffffff"/></g><g id="change1_33"><path d="M440.5609741,418.8834839l22.8141174-71.8241577H325.2468567 c-0.0685425,0-0.1282043,0.043396-0.1488953,0.1094666l-22.7791138,71.7146912H440.5609741z" fill="#ffffff"/></g><g id="change3_11"><path d="M312.5565796 411.3936157L331.1845703 352.747406 357.4464722 352.747406 338.8184814 411.3936157z" fill="#cdf3e5"/></g><g><g id="change2_13"><path d="M406.019928 462.880188L390.2063293 430.5010681 362.394104 430.5010681 378.2076416 462.880188z" fill="#d4d4d4"/></g><g id="change1_11"><path d="M400.4311829 462.880188L384.6175842 430.5010681 356.8053589 430.5010681 372.6188965 462.880188z" fill="#ffffff"/></g></g><g id="change1_34"><path d="M415.471283 456.1880798L410.150116 462.8840332 336.9219971 462.8840332 341.2289124 456.1880798z" fill="#ffffff"/></g><g id="change2_9"><path d="M415.471283 456.1880798L419.6721497 462.8840332 410.150116 462.8840332z" fill="#d4d4d4"/></g></g></g></g></g></g><g><g><g id="change1_41"><ellipse cx="438.77" cy="365.778" fill="#ffffff" rx="11.877" ry="8.516" transform="rotate(-40.256 438.77 365.778)"/></g><g id="change2_12"><path d="M448.8268127,365.7776184h-10.0566711l3.3612061-10.0566711 C447.6859741,355.7209473,450.6833191,360.2229614,448.8268127,365.7776184z" fill="#d4d4d4"/></g></g><g id="change2_7"><path d="M360.6920471,374.3994141l4.5223083-13.5305786c0,0,5.7044373-1.6628418,6.1135559,2.8694153 c0.4659119,5.1617737,13.9139709-1.9000854,18.5791321-1.9803162 c6.6776733-0.1148682,4.8412476,4.0691833,11.0328369,5.012207 c6.1916199,0.9430237,13.7366333-4.6350098,16.0018921-6.8982544l-4.8554993,14.5275269H360.6920471z" fill="#d4d4d4"/></g></g></g></g><g id="change2_3"><path d="M481.2738953,461.9900513c-0.0537109,0-0.1083984-0.012207-0.1591797-0.0385742 c-4.0849609-2.0893555-8.1425781-4.5083008-8.9677734-9.0395508 c-0.3496094-1.9238281-0.0019531-3.9233398,0.3398438-5.4501953 c0.2382813-1.0610352,1.5820313-3.1523438,3.6162109-6.3183594 c3.3378906-5.1958008,8.3828125-13.0473633,11.6171875-21.5234375 c0.0703125-0.1806641,0.2753906-0.269043,0.4521484-0.2021484c0.1806641,0.0688477,0.2705078,0.2714844,0.2021484,0.4521484 c-3.2607422,8.543457-8.3291016,16.4321289-11.6826172,21.6518555 c-1.8496094,2.8789063-3.3115234,5.1533203-3.5214844,6.0932617c-0.328125,1.4624023-0.6611328,3.371582-0.3339844,5.171875 c0.7675781,4.2167969,4.6679688,6.5317383,8.5966797,8.5415039c0.171875,0.0878906,0.2402344,0.2988281,0.1523438,0.4707031 C481.5238953,461.9202271,481.4008484,461.9900513,481.2738953,461.9900513z" fill="#d4d4d4"/></g><g><g><g id="change1_25"><path d="M504.1591187 511.6006165L504.1593628 649.5046997 531.9783936 642.314209 531.9782104 518.7911377z" fill="#ffffff"/></g><g><g><g id="change1_20"><path d="M433.668 511.601H504.159V649.505H433.668z" fill="#ffffff"/></g><g><g id="change3_3"><path d="M450.9433594,609.0883789v40.4165039h35.9436035v-40.4165039 c0-9.9248047-8.0470276-17.9718018-17.9718323-17.9718018c-4.9623718,0-9.4569092,2.0101929-12.7077332,5.2640991 C452.9535828,599.6345215,450.9433594,604.1259766,450.9433594,609.0883789z" fill="#cdf3e5"/></g></g><g id="change1_8"><path d="M441.706 562.754H496.733V576.345H441.706z" fill="#ffffff"/></g><g><g id="change3_9"><path d="M441.706 549.163H496.733V562.754H441.706z" fill="#cdf3e5"/></g></g><g id="change1_16"><path d="M441.706 535.573H496.733V549.164H441.706z" fill="#ffffff"/></g><g><g id="change3_4"><path d="M441.706 521.982H496.733V535.573H441.706z" fill="#cdf3e5"/></g></g></g><g id="change2_18"><path d="M461.7461243,607.2012939c0,3.9624634,3.2098389,7.1723022,7.1690063,7.1723022 c3.9592285,0,7.1690674-3.2098389,7.1690674-7.1723022c0-3.9592285-3.2098389-7.1690674-7.1690674-7.1690674 C464.9559631,600.0322266,461.7461243,603.2420654,461.7461243,607.2012939z" fill="#d4d4d4"/></g><g id="change1_17"><path d="M476.722 526.83H483.645V530.725H476.722z" fill="#ffffff"/></g><g id="change1_18"><path d="M486.386 526.83H493.309V530.725H486.386z" fill="#ffffff"/></g></g></g><g fill="#ffffff" id="change1_51"><path d="M455.971 640.383H467.335V644.278H455.971z"/><path d="M470.495 640.383H481.859V644.278H470.495z"/></g></g></g><g><g id="change2_19"><path d="M357.5144653,290.6334839c0.1033325,3.5350647-2.6876221,6.5016785-6.2123413,6.6153564 c-72.1913757,2.2533264-144.3825073,4.506897-216.5738831,6.7602234 c-3.5350647,0.113678-6.5018005-2.9150085-6.6153717-6.7498779c-1.7093124-59.1173401-1.5674591-113.8130341,0-169.872757 c0.1135712-3.8453369,3.080307-6.8635635,6.6153717-6.7602234 c72.1913757,2.2534485,144.3825073,4.5171204,216.5635376,6.7704468 c3.5454102,0.1138153,6.3260193,3.0700836,6.2226868,6.6156158 C356.0532227,182.0388336,355.9467773,236.6222076,357.5144653,290.6334839z" fill="#d4d4d4"/></g><g><g><g><g><g><g id="change1_30"><path d="M361.4784546,144.4049072c-1.2248535,48.7926788-1.1327209,97.6102295,0.2761841,146.3996277 c0.1028442,3.5336609-2.6799316,6.4951172-6.2131042,6.6086731 c-72.1904907,2.2549744-144.3811035,4.5097961-216.5714722,6.7647705 c-3.5329132,0.1114197-6.5036926-2.9154053-6.6147308-6.7505188 c-1.5277863-52.914978-1.6274719-105.8611145-0.2994232-158.780014 C208.5300903,140.5665131,285.0042725,142.4857178,361.4784546,144.4049072z" fill="#ffffff"/></g><g id="change3_7"><path d="M284.0517273,154.1634216c-0.9319763,44.5845795-0.7951965,89.1861877,0.4104614,133.7659607 c21.9293518-0.5930481,43.858429-1.1860962,65.7877502-1.7789917 c-1.1773987-43.5285797-1.3108826-87.0783539-0.4007568-130.6116028 C327.9168396,155.080368,305.9842224,154.6218414,284.0517273,154.1634216z" fill="#cdf3e5"/></g></g><g id="change3_8"><path d="M361.7560425,134.1762543c-0.0984192,3.4091339-0.1902771,6.8182678-0.2760925,10.2275238 c-76.4746704-1.9190674-152.9493561-3.8382721-229.4240417-5.7574615 c0.092865-3.697464,0.1925507-7.3952942,0.2993011-11.0924911 c0.1112823-3.8455887,3.077774-6.8681107,6.6199036-6.7560577 c72.1875916,2.2547073,144.3751984,4.5097961,216.5627899,6.7645111 C359.079895,127.674202,361.8588867,130.6346283,361.7560425,134.1762543z" fill="#cdf3e5"/></g><g><g><g id="change1_45"><path d="M176.1875,130.8577271c-0.0567932,2.0306091-1.6408539,3.6343536-3.5403595,3.583252 c-1.900528-0.0500946-3.3950043-1.7414093-3.3377228-3.7770691 c0.0571594-2.0355377,1.6462708-3.6397934,3.5450287-3.5828857 C174.7527008,127.1369247,176.245163,128.8274841,176.1875,130.8577271z" fill="#ffffff"/></g></g><g><g id="change1_39"><path d="M162.2907867,130.4664307c-0.0571594,2.0395813-1.640976,3.6511536-3.5410004,3.6007996 c-1.8992615-0.0495758-3.3939819-1.7487183-3.3369446-3.7944794 c0.0580444-2.0457611,1.6453857-3.6565704,3.5453949-3.6007996 C160.8577576,126.7287292,162.3486938,128.4271088,162.2907867,130.4664307z" fill="#ffffff"/></g></g><g><g id="change1_2"><path d="M148.3943329,130.0749054c-0.0574188,2.04953-1.642746,3.6689301-3.5413818,3.618454 c-1.8996277-0.0509644-3.3951263-1.7571716-3.3367004-3.812149 c0.0574188-2.0550919,1.6462708-3.6734772,3.5459137-3.6183319 C146.9620514,126.3199081,148.4514923,128.0251007,148.3943329,130.0749054z" fill="#ffffff"/></g></g></g></g><g><g id="change1_21"><path d="M161.3132629,238.4873962c0.0456848,5.1615143-3.7997742,9.3948517-8.6082458,9.4556732 c-0.002533,0-0.0050507,0-0.0077057-0.0001221c-4.8089752,0.0616913-8.7586517-4.1024933-8.8055878-9.3001099 c-0.0449219-5.1590271,3.779892-9.4293213,8.6382751-9.4555511c0.002655,0,0.0051727,0,0.0077057,0 C157.3466644,229.1616821,161.267334,233.3266296,161.3132629,238.4873962z" fill="#ffffff"/></g><g id="change2_4"><path d="M161.814209,272.6158142c0.106369,5.1490173-3.6891327,9.4288025-8.4877625,9.5460205 c-0.0039063,0-0.0074463,0-0.0113525,0c-4.8087158,0.1183472-8.8096313-3.9991455-8.9162598-9.186554 c-0.1102142-5.216217,3.7017517-9.4737854,8.5291443-9.5586243 c0.0039063-0.0001221,0.0074463-0.0001221,0.0113525-0.0003967 C157.7385864,263.3360291,161.7077026,267.4542847,161.814209,272.6158142z" fill="#d4d4d4"/></g></g><g id="change1_36"><path d="M329.3983154,196.1591644c-7.2224121,7.2261963-18.8731384,7.2299957-26.0129089-0.1472473 c-7.1400146-7.3720703-7.0047607-19.3374786,0.2999268-26.5617828 c7.2963562-7.221283,18.9379883-6.9754791,25.9956055,0.3965759 C336.7388306,177.2221985,336.6134033,188.9375,329.3983154,196.1591644z" fill="#ffffff"/></g><g id="change2_10"><path d="M303.6842041,169.4482422c8.5276184,8.9855347,17.0987854,17.8885345,25.7127075,26.7089081 c-7.221283,7.2248077-18.8661804,7.2369232-26.0054321-0.1395569 C296.2507019,188.6456451,296.3796387,176.6739349,303.6842041,169.4482422z" fill="#d4d4d4"/></g></g><g id="change3_5"><path d="M329.3983154,196.1591644c-4.3081665-4.4111328-8.6056213-8.8433228-12.8924561-13.2962189 c4.3817444-4.3595276,8.7733154-8.698349,13.1750793-13.0162354 C336.7388306,177.2221985,336.6134033,188.9375,329.3983154,196.1591644z" fill="#cdf3e5"/></g></g><g id="change3_1"><path d="M143.7782745,207.8248901c3.1322937-11.1086426,6.3276825-22.1811981,9.5856476-33.2177734 c5.9880066-0.8278656,11.9759979-1.6503143,17.9647522-2.4672089 c2.3483429-5.4056702,4.711441-10.7983551,7.0895538-16.178299 c5.3863831,0.1049957,10.7724915,0.2104797,16.1588745,0.3154602 c2.5803833,7.9936218,5.1938171,15.96492,7.8404388,23.9140167 c5.513443,0.0622101,11.0267487,0.1237793,16.5400543,0.1858521 c1.7417908,2.3170471,3.4863586,4.6296844,5.2338257,6.9384003 c4.6296692,0.0408783,9.2589722,0.0817566,13.8886414,0.1225128 c3.0275574-4.4116364,6.0652161-8.8085022,9.1129761-13.1916199 c3.7035065,0.0499725,7.4068909,0.1004486,11.1103973,0.1502838 c3.2328491-5.8285065,6.4837646-11.6375885,9.752594-17.4262238 c-0.3366699,17.0156403-0.5186157,34.0332794-0.5456238,51.0514374 C226.2663269,207.9561157,185.0223694,207.8905029,143.7782745,207.8248901z" fill="#cdf3e5"/></g><g id="change3_2"><path d="M143.7782745,207.8248901c3.1322937-11.1086426,6.3276825-22.1811981,9.5856476-33.2177734 c5.9880066-0.8278656,11.9759979-1.6503143,17.9647522-2.4672089 c2.3483429-5.4056702,4.711441-10.7983551,7.0895538-16.178299 c5.3863831,0.1049957,10.7724915,0.2104797,16.1588745,0.3154602 c2.5803833,7.9936218,5.1938171,15.96492,7.8404388,23.9140167 c5.513443,0.0622101,11.0267487,0.1237793,16.5400543,0.1858521 c1.7417908,2.3170471,3.4863586,4.6296844,5.2338257,6.9384003 c4.6296692,0.0408783,9.2589722,0.0817566,13.8886414,0.1225128 c3.0275574-4.4116364,6.0652161-8.8085022,9.1129761-13.1916199 c3.7035065,0.0499725,7.4068909,0.1004486,11.1103973,0.1502838 c3.2328491-5.8285065,6.4837646-11.6375885,9.752594-17.4262238 c-0.3366699,17.0156403-0.5186157,34.0332794-0.5456238,51.0514374 C226.2663269,207.9561157,185.0223694,207.8905029,143.7782745,207.8248901z" fill="#cdf3e5"/></g></g></g><g><g><g><g><g><g id="change3_10"><path d="M548.1402588,220.5227661c0,1.9252472,1.5563965,3.4815216,3.4815674,3.4815216 c1.9177856,0,3.4667358-1.5562744,3.4667358-3.4815216c0-1.9176941-1.5489502-3.4667511-3.4667358-3.4667511 C549.6966553,217.056015,548.1402588,218.605072,548.1402588,220.5227661z" fill="#cdf3e5"/></g></g></g><g><g><g id="change1_24"><path d="M428.1394958,219.8189087l-7.228363-9.6797943c0,0-10.8101807-17.7650909-14.8204346-16.2776184 c-4.722229,1.7515564,7.500946,19.8622437,7.500946,19.8622437 c-3.1655579-3.2103271-6.468811-0.9208679-4.5217896,2.2592773 c-2.693512-1.6485596-5.3753967,0.1986542-3.657196,2.8779144c0,0-3.6894531,0.5653076-1.1426392,5.3440552 c2.546814,4.7787323,6.5823364,8.5364075,9.6238708,10.3257294 c1.1958313,0.7035065,2.5962524,1.2989807,3.8710632,2.4725342" fill="#ffffff"/></g><g id="change1_26"><path d="M424.4265137,218.2085114c-2.3308411-1.319809-1.7165222-4.6479797-1.7165222-4.6479797 s-3.905365-0.0610657-5.1711731-0.3369904c-2.5606995-0.558197-3.0261536-2.8493652-1.0978394-4.3554535 c2.2170715-1.7316437,6.850708-3.0889893,11.1471252-1.5380402 c4.2964478,1.5509644,2.2819824,8.2620392,2.1575012,11.0817413 c-0.0800476,1.8134308,0.4237061,3.1782684,2.3776855,6.8604584" fill="#ffffff"/></g></g><g id="change1_6"><path d="M405.413 218.861L407.807 221.908" fill="#ffffff"/></g><g id="change1_31"><path d="M408.874 215.774L411.31 218.74" fill="#ffffff"/></g><g id="change1_22"><path d="M413.358 213.42L415.359 216.092" fill="#ffffff"/></g></g><g><g id="change2_15"><path d="M414.6835327,240.8960876c0,0,36.3374023,42.4845581,52.3648376,44.1629639 c6.6950378,0.7008667,21.9109497-14.4042969,21.9109497-14.4042969l6.8035889,50.2824707 c13.1693726,0.8561401,25.3624573,1.3941956,35.3422546,1.2108154c0.0092163,0,0.1269531,0.5046082,0.1269531,0.5046082 l7.4602661,0.6306152c0,0,33.6224976,2.9511719,53.3202515-0.9865723 c19.7693481-3.9497681,1.8605347-66.021759-13.9248657-90.1797485 c-15.8983765-24.3363953-54.3531494-21.6342468-54.3531494-21.6342468 c-37.8276978,3.3935394-58.6228333,38.9250641-58.6228333,38.9250641l-29.3805542-30.2936096 C433.7762146,217.2328644,412.7285461,239.014801,414.6835327,240.8960876z" fill="#d4d4d4"/></g></g><g><g id="change1_46"><path d="M467.2192078,263.4207153c-0.0107422,0-0.0214844-0.0004883-0.0322266-0.0009766 c-0.2763672-0.0175781-0.4853516-0.2548828-0.4677734-0.5307617 c0.3779297-5.9541016-0.234375-9.9145508-2.046875-13.2421875 c-0.1318359-0.2426758-0.0419922-0.5463867,0.2001953-0.6782227 c0.2421875-0.1323242,0.5458984-0.043457,0.6787109,0.199707 c2.3994141,4.4072266,2.4414063,9.440918,2.1660156,13.7841797 C467.7006531,263.2171021,467.47995,263.4207153,467.2192078,263.4207153z" fill="#ffffff"/></g></g></g><g><g><g><g id="change1_42"><path d="M378.2256165,261.8946228l13.4459229,25.5614319l18.8181458,35.7576294 c0.538269,1.015564,1.5843201,1.6554871,2.7420654,1.6554871H541.28302 c0-3.0164185-1.2186279-5.7481995-3.1989136-7.7182922c-1.9702148-1.9802856-4.7021484-3.1989136-7.7081299-3.1989136 h-36.326416l-28.9128113-54.9415894c-0.5281067-1.015564-1.5843506-1.6552429-2.7419739-1.6552429h-81.4272156 C378.6318665,257.3551331,377.1390381,259.8432007,378.2256165,261.8946228z" fill="#ffffff"/></g></g></g><g><g id="change2_5"><path d="M378.2256165,261.8946228l13.4459229,25.5614319 c11.7295837-4.99646,19.8540344-15.8224182,19.8540344-28.3745422c0-0.5789185-0.0203247-1.1578674-0.0507202-1.7263794 h-30.5072937C378.6318665,257.3551331,377.1390381,259.8432007,378.2256165,261.8946228z" fill="#d4d4d4"/></g></g><g id="change1_3"><path d="M480.928 313.702L405.522 313.702" fill="#ffffff"/></g></g><g><g id="change1_43"><path d="M514.1852417,308.1914978c6.0108643-1.7428894,12.2747192-2.5185547,16.6118774-2.8825073 l0.3080444,16.8391418c-2.1220703,0.1832275-4.6143799,0.3347473-6.9348145,0.3132629 c-5.5566406-0.0523376-5.6940918,6.3417664-9.1116333,6.8374023c-3.41745,0.4956665-1.956543-3.9130859-1.956543-3.9130859 s-2.0348511,3.41745-4.0436096,2.2958374c-1.6332397-0.9122314-0.3520508-2.8413696,0.1841125-3.5309753 c-0.5150146,0.5874023-1.9534607,1.9845276-3.7581482,1.6525269 c-2.2695923-0.4173889-0.1043396-4.2261047-0.1043396-4.2261047c-4.3566284,3.2868652-4.3865051,0.45047-4.3865051,0.45047 S504.1779175,311.0932007,514.1852417,308.1914978z" fill="#ffffff"/></g><g id="change2_8"><path d="M554.0861816,246.7494507c3.7850952,18.0013428,12.1488647,36.3832703,18.5245972,52.7115479 l-43.5898438,2.7332764c-1.3685913,0.1434937,0.8424072,21.2324829,2.2109985,21.0889893 c0,0,0.0645142,0.0553894,0.1936646,0.1751709c0.0092163,0,0.0092163,0,0.0092163,0 c0.7766724,0.0527344,31.0765991,4.7357788,60.5778198-1.1617432 c17.6320801-3.5227661,5.2748413-53.5047302-8.9082642-81.4006042h-0.0092163" fill="#d4d4d4"/></g><g id="change1_27"><path d="M587.6889038,305.696106c-0.0302734,0-0.0605469-0.0024414-0.0908203-0.0083008 c-10.734375-1.9521484-15.1337891-5.690918-15.3154297-5.8491211 c-0.2080078-0.1811523-0.2304688-0.4960938-0.0498047-0.7045898 c0.1826172-0.2094727,0.4960938-0.2304688,0.7050781-0.0507813 c0.0429688,0.0371094,4.4082031,3.7236328,14.8398438,5.6210938 c0.2714844,0.0493164,0.4511719,0.3095703,0.4023438,0.5810547 C588.1361694,305.5271606,587.9252319,305.696106,587.6889038,305.696106z" fill="#ffffff"/></g></g></g><g><g><g><g id="change1_10"><path d="M541.3835449,213.7235107c-1.8048096,8.3812866-24.779541,9.5045319-24.3339844,1.1377411 c0.1060791-14.0897827,0.069458-9.2227325,0.0773926-10.2770996 c-0.0197144-0.0082703-0.0404663-0.003006-0.0670166-0.0117798 c-0.0202637-0.0015106-0.0410767,0.0037384-0.0540771-0.0040283 c-17.2409058-2.8370972-14.8571472-29.2315216-14.8571472-29.2315216 c17.1938171-35.2483368,30.2365417-10.3822784,41.5707703,7.2335358c0,0-0.0300903,0.4050903-0.1373291,1.1169739 L541.3835449,213.7235107z" fill="#ffffff"/></g><g id="change1_40"><path d="M534.7114868,179.1367798c0,0-0.8028564-8.1809845,5.6629639-10.4208069 c6.5166016-2.2574005,10.8824463,10.2507324,0.7808838,16.5757446" fill="#ffffff"/></g></g><g id="change1_47"><path d="M511.7929077,181.2179565c0.2796631,2.1811523,0.5508423,4.4547882-0.168457,6.5328369 c-0.3176575,0.9177399-0.8222656,1.7722015-1.0325012,2.7203369 c-0.2102356,0.9481506-0.0448914,2.077652,0.7398376,2.6497955 c0.8377686,0.6108093,2.0202637,0.3584137,2.9595337-0.0805511c0.2188721-0.1022797,0.4360352-0.213913,0.6535645-0.3256378" fill="#ffffff"/></g><g id="change1_48"><path d="M513.8236084,176.6609344c0,0,2.9128418-2.2942657,6.9217529,0.3699646" fill="#ffffff"/></g><g id="change1_49"><path d="M502.8681946,180.0404968c0,0,2.2585449-2.9406586,6.7998962-1.3451385" fill="#ffffff"/></g></g></g></g></g></g><g id="change2_14"><path d="M230.4046173,387.8238525l2.2762451,6.6522522l-36.8019562-3.7790527l3.5813446-6.0510559 c1.0826721-1.8293152,3.1304321-2.8618774,5.2449951-2.6447449l21.1011963,2.1668091 C227.9211273,384.3851929,229.7163849,385.8125305,230.4046173,387.8238525z" fill="#d4d4d4"/></g></g></g><g fill="#263237" id="change4_1"><path d="M618.6893921,133.8180542c-45.3000488-40.5799637-170.22995-22.400032-229.3998718-8.6400223 c-0.2700195,0.0600586-0.4300537,0.3300781-0.3701172,0.6000977c0.0700684,0.2698975,0.3300781,0.4399414,0.6101074,0.369873 c58.7199707-13.6398926,183.4899597-31.8999023,228.4899597,8.4200516 c24.7600098,22.1800537,25.4399414,102.2399902,1.3299561,155.75 c-4.5300293,9.9799805-10.8900146,20.539917-20.1600342,26.2700195c7.8760376-17.8613892-8.2819214-65.651001-20.6799316-84.75 c-8.6900635-13.2900391-24.1401367-18.5899658-36.4400635-20.6600342 c2.0999756-28.5400391,1.9801025-27.3000488,2.0400391-27.5899658c4.0299072-4.0300293,4.4300537-9.5100098,2.2199707-12.960083 c0,0,0,0,0-0.0100098c0.2000732-2.7698975,0.1500244-9.4599609-4.2700195-13.8199463 c-3.5699463-3.5198975-9.1500244-4.6700439-16.5-3.4100342c-0.0999756,0.0100098-9.1900635,0.2600098-15.1099548-6.8598633 c-2.5200195-3.0400391-5.5700684-3.9001465-8.1300049-2.3100586c-2.4899902,1.5400391-4.0499268,5.3699951-3.0799561,9.7099609 c-0.9699707-0.8800049-2.3300781-1.7399902-4.0200195-1.8800049c-2.3900146-0.1999512-4.7800293,1.0899658-7.1400146,3.8299561 c-2.210083,2.5800781-2.8199463,5.5800781-1.7799072,8.6900635c1.9599609,5.8499756,9.329834,10.8800049,15.2698975,12.3900146 c-0.1600342,5.8800049,0.4300537,25.3699951,15.0498962,28.0500488c-0.0198975,5.5799561-0.0898438,5.8099365,0,5.9399414 c0,0.0200195,0.0100098,0.0300293,0.0200195,0.0500488c-0.1512451,0.0432892-4.3201294,0.9750061-4.6698914,1.1499023 c-27.9399414,7.8601074-44.4100342,32.4200439-46.9499512,36.4500732l-28.9400635-29.8499756 c-0.789917-0.75-2.9300537,0.5599365-5.3199463,2.5300293c-0.4400635-1.1401367-0.5500488-1.9300537-0.5100098-2.8500977 c0.1099854-2.7800293,2.25-9.8499756-2.4899902-11.5700684c-2.8300781-1.0198975-5.880127-0.8498535-8.3601074-0.0499268 c-3.4899902-5.3499756-10.1599121-14.6600342-13.4799805-13.4200439 c-4.5400391,1.7199707,3.2900391,14.4400635,5.8900146,18.5200195c-2.3499756-0.8798828-4.3199463,0.75-3.6999512,3.1101074 c-2.5999756-0.7299805-4.5100098,1.2099609-3.4300537,3.539917c-0.4799805,0.210083-1.1199951,0.5999756-1.5,1.3599854 c-0.5699463,1.1300049-0.3499756,2.6500244,0.6500244,4.5200195c2.5899658,4.8800049,6.9500732,9.0800781,10.7700195,11.0500488 c0.539917,0.3000488,1.0899658,0.5999756,1.6300049,0.9499512c-1.6300049,2.2199707-2.5900879,4.0800781-1.9100342,4.7900391 c0.6500244,0.7600098,6.4899902,7.5600586,14.3199463,15.6199951h-47.6799316 c-2.6899414,0-4.4499512,2.8900146-3.1799316,5.2799072l29.1298828,55.3500977 c-17.8598633-2.4200439-35.1098633-1.0100098-50.2299805,3.5100098 c-15.0071411,4.4826965-26.9073486,13.9824524-22.0899658,21.5300293h-9.3399658 c-2.0600586,0-3.8601074,1.3199463-4.4799805,3.2700195l-25.1201172,79.0898438 c-0.9599609,3.0400391,1.2900391,6.1201172,4.4799805,6.1201172h56.3701172l12.0500488,24.6899414h-27.3200684 c-0.1700439,0-0.3300781,0.0800781-0.4200439,0.2299805l-4.1600342,6.4599609h-33.75 c11.3601074-0.8598633,20.9400635-2.0100098,21.8400879-2.1098633c0.5200195-0.0400391,1.1398926-0.3100586,1.6699219-1.1601563 c0.6700439,0.0800781,3.0900879,0.2401123,3.8300781,0.2401123c1.5400391,0,4.5600586-0.1600342,4.8499756-1.3599854 c0.1199951-0.4699707-0.1199951-0.9200439-0.7999268-1.4000244c2.2698975,0.0799561,3.7999268-0.4200439,4.0599365-1.4000244 c0.2199707-0.8100586-0.4200439-1.6300049-1.8599854-2.4299316c2.3699951-0.0300293,4.4699707-0.4899902,4.7299805-1.7600098 c0.1499023-0.75-0.3800049-1.4799805-1.5900879-2.1800537c3.7000732,0.5300293,11.4300537,2.3399658,11.5600586-1.1400146 c0.1700439-3.1398926-11.4299316-7.3299561-15.5100098-7.6499023c-3.5899658-0.2800293-7.7700195,0.369873-10.8798828,1.039917 c-0.5300293-0.4799805-1.0400391-0.5999756-1.4301758-0.5699463l-46.6499023-4.7800293 c-1.5-2.5100098-15.7600098-25.8000488-32.25-36.3300781c-6.3000488-4.0200195-13.0800781-6.9899902-19.8900146-8.8498535 c0.0999756,0.0098877,3.0499268,0.2399902,3.2600098,0.25c0.0100098,0,0.0100098,0,0.0100098,0 c0.2698975-0.0100098,0.5198975-0.2401123,0.4799805-0.5600586c-0.5299072-4.4399414-1.039917-10.0600586-0.1900635-14.4499512 c0-0.0200195,0-0.0400391,0.0100098-0.0600586c4.2600098-1.4200439,6.5400391-4.4799805,7.7199707-6.8800049c0,0,0,0,0-0.0100098 c0.0400391-0.0699463,0.0700684-0.1199951,0.0900879-0.1900635c0,0,0.0100098-0.0100098,0.0100098-0.0200195 c0.4599609-0.9699707,0.7399902-1.8199463,0.8900146-2.3798828c1.3199463,0.7299805,2.8599854,0.9499512,3.6999512-0.2700195 c1.5300293-2.2600098-1.4599609-7.9599609-2.0699463-9.0600586c0.0500488-2.0999756-0.1800537-3.8499756-0.6800537-5.25 c0.0200195-0.0100098,0.0500488-0.0100098,0.0699463-0.0100098c10.8701172-0.5899658,16.3100586-10.2800293,6.8100586-13.2700195 c-1.3200684-0.4199219-32.2700195-10.1599121-42.4399414,5.2399902 c-8.8300781,13.3901367-10.1400146,26.7600098,5.3099365,30.4899902 c-1.1199951,4.2200928-4.2199707,9.5200195-6.9200439,13.8400879c-0.1999512,0.3000488-0.0100098,0.7299805,0.380127,0.7700195 l0.1499023,0.0100098c-3.6499023,0.5-7.1298828,1.3999023-10.3499756,2.7299805 c-8.1700439,3.3699951-13.5499268,9.1699219-15.1600342,16.3200684c-0.1599121,0.6999512-0.3099365,1.4699707-0.4699707,2.2999268 l-0.7800293,0.0299072c-0.1699219,0-18.5400391-0.2299805-29.8499756,11.3000488 c-6.3299561,6.4499512-9.3099365,15.3200684-8.8699951,26.3601074c0.1899414,4.7600098,0.5300293,9.6599121,1.0400391,14.6098633 h-34.689949c-0.2800293,0-0.5,0.2299805-0.5,0.5v18.8400879c0,0.2700195,0.2199707,0.5,0.5,0.5h35.3398514v166.1398926 c0,0.2700195,0.2200928,0.5,0.5,0.5h18.8300781c0.2800293,0,0.5-0.2299805,0.5-0.5V528.9680786 c5.9399414,8.5300293,13.2399902,14.6999512,22.0800781,17.1599121c6.9399414,1.9300537,16.3898926,3.3500977,26.6999512,4.130127 v81.4799805h-31.1700439c-2.5499268,0-4.6300049,2.0799561-4.6300049,4.6298828v4.5500488c0,0.2800293,0.2299805,0.5,0.5,0.5 h10.6899414c-0.0499268,0.2900391-0.0699463,0.5900879-0.0699463,0.9000244c0,3.8599854,3.1400146,7,7,7s7-3.1400146,7-7 c0-0.3099365-0.0198975-0.6099854-0.0699463-0.9000244h37.6599121c-0.0499268,0.2900391-0.0699463,0.5900879-0.0699463,0.9000244 c0,3.8599854,3.1400146,7,7,7s7-3.1400146,7-7c0-0.3099365-0.0200195-0.6099854-0.0699463-0.9000244h10.6899414 c0.2800293,0,0.5-0.2199707,0.5-0.5v-4.5500488c0-2.5499268-2.0800781-4.6298828-4.6300049-4.6298828h-31.1700439v-80.8000488 c5.5900879,0.0700684,12.630127-0.0999756,19.0700684-0.6099854l23.8999023,69.5899658 c0.130127,0.9200439,1.4801025,1.3400879,4.380127,1.3601074h0.0599365l0.7200928,4.039917 c-0.3701172,0.2999268-0.630127,0.7299805-0.7200928,1.2399902c-2.0899658,12.9300537-1.6400146,10.1700439-1.8800049,11.6900635 c-0.3499756,2.0999756,1.6000977,3.7999268,3.4100342,3.369873c0.2299805-0.039917,3.9100342-0.6799316,31.960083-5.5998535 c1.5299072-0.2800293,2.5698242-1.6501465,2.4199219-3.2000732c-0.440033-3.2976074-2.7583008-5.4069824-5.4399414-5.8699951 c-6.1201172-1.0600586-10.3601074-2.9099121-11.9500732-5.1899414c-0.3900146-0.5600586-0.8499756-0.9400635-1.3800049-1.1501465 l-0.3000488-1.6799316c3.9500732-1.2199707,3.3100586-2.25,3.3901367-2.3499756l-10.6000977-63l34.0600586,73.6600342 c0.4799805,1.3000488,2.8599854,1.0899658,4.2199707,0.869873l1.7099609,4.8901367 c-0.3199463,0.3499756-0.5100098,0.8299561-0.5100098,1.3399658v11.8499756c0,2.0400391,2,3.4399414,3.9100342,2.7800293 c0.0899658-0.0300293,28.8599854-10.0200195,30.6600342-10.6400146c4.1398926-1.4799805,1.1298828-8.4100342-4.4399414-8.4700928 c-6.2000732-0.0698242-10.6900635-1.2199707-12.630127-3.2199707c-0.4699707-0.4899902-0.9899902-0.7999268-1.5500488-0.9199219 l-1.329834-3.8000488c1.369873-0.9899902,2.2600098-2.0200195,1.9099121-2.9299316 c-0.6999512-3.9300537-17.4499512-96.4599609-35.75-112.2700195c-7.7700195-6.7099609-33.0500488-9.9399414-46.0999756-11.1899414 l-1.5799561-13.3100586h127.289917v166.1398926c0,0.2700195,0.2301025,0.5,0.5,0.5h18.8399658c0.2700195,0,0.5-0.2299805,0.5-0.5 V482.2180786h35.3400879c0.2700195,0,0.5-0.2299805,0.5-0.5v-18.8400879c0-0.2700195-0.2299805-0.5-0.5-0.5h-14.2900391 l-4.0500488-6.4599609c-0.0100098-0.0200195-0.0300293-0.0500488-0.0499268-0.0600586 c-0.0899658-0.0998535-0.2200928-0.1599121-0.3499756-0.1699219h-12.4300537l-12.0599365-24.6899414h51.619873 c2.0500488,0,3.8500977-1.3200684,4.4700928-3.2700195l15.1199951-47.5900879 c10.4399414,0.1101074,25.9299316,0.3500977,32.2199707,7.3701172 c18.3799744,20.5100098-11.2099609,53.8798828-12.4199219,59.0998535 c-1.7101135,7.7438965,1.4620667,10.9480591,8.7099609,14.6601563 c9.1398926,4.6799316,19.1799316,10.869873,24.2599792,21.3099365c2.8898926,5.9400635,3.9699707,12.7700195,5.0100098,19.3800049 c0.6899414,4.4499512,1.4099121,9.0200195,1.5400391,13.6199951l-17.1800232-4.4400635 c-0.0300293-0.0100098-0.0500488-0.0200195-0.0799561-0.0200195c-0.0400391-0.0100098-0.0700684-0.0198975-0.1201172-0.0198975 h-70.4899902c-0.2800293,0-0.5,0.2199707-0.5,0.5v137.9000244c0,0.2800293,0.2199707,0.5,0.5,0.5h17.2700195 c54.1999512,0,53.2199707,0.0300293,53.3200684-0.0100098c17.22995-4.4499512,24.1298523-6.2299805,26.6098328-6.8701172 c0,0,0,0,0.0100098,0c0.0400391-0.0100098,0.0700684-0.0198975,0.1101074-0.0299072 c0.0500488-0.0100098,0.1099854-0.0300293,0.1699219-0.0400391c0.0200195-0.0098877,0.0400391-0.0098877,0.0600586-0.0198975 c0.1400146-0.0400391,0.2700195-0.0700684,0.3800049-0.1000977c0.0299072-0.0100098,0.0699463-0.0200195,0.1199951-0.0300293 c0.0100098,0,0.0300293-0.0100098,0.0400391-0.0100098c0.0400391-0.0100098,0.0899658-0.0200195,0.119873-0.0300293 c0.0100098,0,0.0200195-0.0098877,0.0300293-0.0098877c0.0300293-0.0100098,0.0600586-0.0100098,0.0800781-0.0200195 c0.0100098,0,0.0200195,0,0.0400391-0.0100098c0.0200195,0,0.039917-0.0100098,0.0499268-0.0100098 c0.0200195-0.0100098,0.0300293-0.0100098,0.0300293-0.0100098c0.2199707-0.0699463,0.3699951-0.2598877,0.3699951-0.4899902 V518.788147c0-0.2301025-0.1600342-0.4301758-0.3800049-0.4801025l-9.5499268-2.4699707 c-0.1000977-4.7600098-0.8400879-9.4500732-1.5700684-14.0300293 c-2.875061-18.2903137-5.5168457-29.0274353-29.8000183-41.4300537 c-6.7662659-3.4614868-9.8197937-6.3457947-8.1799316-13.5499268 c1.0400391-4.7200928,31.1298523-38.8499756,12.1899414-59.9899902 c-6.5100098-7.2700195-22.0500488-7.5799561-32.6599121-7.6900635l10.1499023-31.9499512 c0.7399902-2.3599854-1.0200195-4.6799316-3.4199219-4.6799316H335.8094177 c-6.2139587-8.0692139,9.7425232-17.1611328,21.1600342-20.5800781c14.9399414-4.4399414,32.25-5.9399414,50.5100098-3.3699951 l2.5700684,4.8800049c0.619873,1.1799316,1.8398438,1.9199219,3.1799316,1.9199219h44.9299316 c7.7199707,0.8400879,15.7800293,1.630127,24,2.2900391v-0.0100098c0.0300293,0.0100098,0.0600586,0.0100098,0.0800781,0.0100098 c9.4680481,0.5773926,2.072937,0.4988098,30.97995,1.8100586c0.7700195,0.5300293,1.9799805,0.4399414,2.75,0.0799561 c20.3000488,0.5699463,47.1799316,0.0599365,66.7199707-5.2099609c0.5,0,6.8699951-1.0400391,9.4200439-1.5499268 c2.6300049-0.5200195,4.7099609-2.0400391,6.2199707-4.5200195c9.2496948-5.2654419,15.4733276-14.3587036,20.210083-23.8901367 c11.2799072-22.9599609,19.6899414-58.2299805,19.4899902-93.3398438 C637.8494263,169.1680298,630.7994995,144.6680298,618.6893921,133.8180542z M486.3893738,648.9981079h-34.9499512v-39.9100342 c0-9.5699463,7.7199707-17.4700928,17.4799805-17.4700928c9.630127,0,17.4699707,7.8300781,17.4699707,17.4700928V648.9981079z M503.6593933,648.9981079h-16.2700195v-39.9100342c0-10.1900635-8.289917-18.4700928-18.4699707-18.4700928 c-10.2399902,0-18.4799805,8.2900391-18.4799805,18.4700928v39.9100342h-16.2700195V512.0980835h69.4899902V648.9981079z M531.4794312,519.1780396v122.75l-26.8200378,6.9299316V512.2481079 C507.6493835,513.0281372,528.4894409,518.40802,531.4794312,519.1780396z M357.6094666,430.9981079h26.6999512 l12.0500488,24.6899414h-26.7000732L357.6094666,430.9981079z M335.5994568,441.0181274 c4.6099854,0.369873,14.7000732,4.6499023,14.5999756,6.6098633c-0.1899414,2.5300293-9.3300781,0.0800781-14.3399658-0.2999268 c-0.5899658-0.0499268-0.7600098,0.8099365-0.1800537,0.9699707c3.9200439,1.1900635,4.6201172,2.210083,4.5600586,2.5 c-0.1000977,0.5-2.1700439,1.2900391-6.4699707,0.8199463c-0.6101074-0.039917-0.7600098,0.7900391-0.2199707,0.9700928 c3.329834,1.1500244,3.8999023,2.0999756,3.829834,2.3399658c-0.0998535,0.4000244-1.9199219,1.0800781-5.7799072,0.3400879 c-0.5999756-0.1101074-0.8299561,0.75-0.2800293,0.9499512c1.25,0.5,1.9400635,0.8800049,2.3299561,1.1300049 c0.380127,0.25,0.460083,0.3800049,0.4799805,0.3800049c-0.3598633,0.5100098-3.6298828,0.7099609-4.6899414,0.5999756 c-0.4399414-0.039917-0.8898926-0.0599365-2.5600586-0.1700439c1.4801025-3.5999756,0.8601074-12.7700195-1.3498535-16.2099609 C328.5195007,441.328064,332.3494568,440.7581177,335.5994568,441.0181274z M208.5295105,374.328064 c0.1999512,0.039917,0.3999023,0.0799561,0.5998535,0.1199951c1.1800537,0.2199707,2.2700195,0.3900146,3.3000488,0.3900146 c2.9899902,0,5.5900879-1.4100342,9.0800781-7.0999756c0.3898926,0.1499023,0.7999268,0.25,1.2299805,0.3000488 c0.0100098,0.0098877,0.0300293,0.0098877,0.0500488,0.0098877c0.25,0,0.4699707-0.1900635,0.5-0.4499512 c0.0299072-0.2700195-0.170166-0.5200195-0.4400635-0.5500488c-2.1800537-0.2299805-3.6900635-2.1900635-3.460083-4.3199463 c0.380127-3.3701172,4.6900635-4.7900391,6.9400635-2.0100098c0.6600342,0.8200684,0.960083,1.8399658,0.8399658,2.8800049 c-0.0300293,0.2698975,0.1700439,0.5198975,0.4400635,0.5499268c0.2698975,0.0200195,0.5198975-0.1699219,0.5599365-0.4399414 c0.1900635-1.8100586-0.6099854-3.4599609-1.8499756-4.4000244c3.9300537-5.8099365,7.5100098-6.8800049,9.0300293-7.0599365 c0.7099609-0.0800781,1.2999268-0.3300781,1.4599609-0.3601074c0.5100098,1.3200684,0.7401123,3.0600586,0.6800537,5.130127 c0,0.0898438,0.0200195,0.1799316,0.0600586,0.2600098c1.0898438,1.9299316,2.4499512,5.0998535,2.4499512,7 c0,0.7099609-0.2099609,1.4099121-0.9000244,1.539917c-0.7800293,0.1400146-1.9100342-0.5100098-2.2700195-0.7700195 c-0.3199463-0.2099609-0.7299805-0.039917-0.789917,0.3199463c-0.0100098,0.0300293-0.2200928,1.210083-0.9300537,2.75 c-0.5300293,0.1501465-2.1500244,0.4400635-3.8399658-0.9599609c-0.210083-0.1699219-0.5300293-0.1398926-0.710083,0.0700684 c-0.1700439,0.2099609-0.1400146,0.5300293,0.0699463,0.6999512c1.2000732,0.9899902,2.4899902,1.4000244,3.9101563,1.3000488 c-1.210083,2.0899658-3.3100586,4.4699707-6.9001465,5.6099854c-0.0100098,0-0.0100098,0-0.0200195,0 c-1.3498535,0.1800537-2.8598633-0.2900391-4.5898438-1.4000244c-0.3901367-0.2299805-0.8400879,0.0900879-0.7700195,0.5 c0.4099121,2.6000977,2.4599609,3.7299805,4.5300293,4.4399414c-0.3000488,3.7299805,0.0699463,7.9500732,0.4799805,11.3601074 c-0.0100098,0-1.2900391-0.1000977-10.1000977-0.7800293c-4.75-0.7199707-7.6298828-0.6400146-9.0400391-0.6999512 l-6.2099609-0.4799805C204.6994324,383.3080444,207.4694519,378.40802,208.5295105,374.328064z M102.5395126,481.2180786 v-17.8400879h34.2899246c0.6199951,5.9300537,1.4899902,11.9300537,2.5999756,17.8400879H102.5395126z M156.2094421,647.8579712 H138.379364V482.2180786h1.2399902c3.2900391,17.0100098,8.670166,33.2800293,16.5900879,45.2900391V647.8579712z M188.3094177,648.3180542c-3.7399902,0-6.5299072-3.4300537-5.9300537-6.9000244h11.8601074 C194.839447,644.8880005,192.0594177,648.3180542,188.3094177,648.3180542z M239.8294373,648.3180542 c-3.7399902,0-6.5299072-3.4300537-5.9300537-6.9000244h11.8601074 C246.3594666,644.8880005,243.5794373,648.3180542,239.8294373,648.3180542z M253.3194275,632.7380981 c2,0,3.6300049,1.6298828,3.6300049,3.6298828v4.0500488h-85.7600098v-4.0500488c0-2,1.6300049-3.6298828,3.6300049-3.6298828 H253.3194275z M206.9894714,631.7380981v-84.9699707c0-0.6401367,2.5200195-1.5700684,7.0799561-1.5700684 s7.0799561,0.9299316,7.0799561,1.5700684c0,0.1699219,0,4.1599121,0,4.1599121v80.8100586H206.9894714z M222.1493835,549.9780884 v-3.2099609c0-2.4500732-6.7299805-2.5700684-8.0799561-2.5700684s-8.0799561,0.1199951-8.0799561,2.5700684v2.5100098 c-10.1999512-0.7900391-19.5500488-2.2000732-26.4300537-4.1101074c-9.0098877-2.5-16.4000244-8.9699707-22.3499756-17.8999023 c-13.9699707-20.960083-19.5200195-54.3500977-20.5200195-79.5400391c-0.4299316-10.75,2.4599609-19.3701172,8.5800781-25.6201172 c7.2600098-7.4099121,18.8798828-10.8498535,29.1499023-11c12.8500977-0.6398926,26.3900146,1.2200928,35.1900635,10.5700684 c16.9000244,17.9200439,8.1999512,54.9100342,6.6099854,80.5700684 c-0.2700195,4.4199219,0.7099609,8.5799561,2.3499756,11.6499023 c8.1099854,16.3601074,36.1300049,24.6800537,54.2200928,27.4799805 c-0.0300293,0.0300293-0.0700684,0.0600586-0.1101074,0.0800781 C262.6393738,549.2781372,234.8893738,550.117981,222.1493835,549.9780884z M286.9294128,621.9480591 c0.5800781,0.5300293,1.9399414,4.0700684,12.9300537,5.9899902c1.3900146,0.2399902,2.6199951,0.9899902,3.4599609,2.0900879 c-2.0699463,0.8798828-3.5599365,3.0699463-3.3599854,5.5100098l-25.2800293,4.4399414 c-0.3399658-2.7299805-2.6699219-4.8701172-5.4799805-4.8900146c0.0200195-0.0999756,1.2600098-7.8199463,1.3500977-8.3699951 c0.0966187-0.5032349,0.5304565-0.8200684,0.8598633-0.8200684c1.2299805-0.2399902,2.3601074,0.0400391,3.3200684,0.7700195 c2.1899414,1.6500244,4.1398926,0.4000244,4.8898926-0.5100098 C281.2094421,623.9680786,285.0594177,619.9680786,286.9294128,621.9480591z M288.79953,616.7180786 c-0.210083,0.5600586-2.9001465,1.3499756-3.5500488,1.5c-1.8200684,0.5-4.3500977,1.0100098-7.6000977,1.4499512 c-2.0100098,0.2700195-6.2600098,0.7299805-8.2700195,0.6000977c-2-0.0300293-3.0998535-0.2700195-3.289917-0.5800781 l-23.8299561-69.4399414c14.1098633-1.1700439,26.1499023-3.8601074,31.5100098-8.3901367l3.8199463,8.2600098 L288.79953,616.7180786z M335.0694275,627.0081177c0.1300049,0.0899658,0.2600098,0.1999512,0.3800049,0.3299561 c2.7299805,2.8099365,8.7600098,3.4699707,13.3400879,3.5198975c1.3999023,0.0200195,2.75,0.5600586,3.7600098,1.5100098 c-2.0600586,1.3100586-2.9901123,3.7399902-2.4500732,5.9899902l-24.25,8.4101563 c-0.7600098-2.6401367-3.4000244-4.380127-6.1800537-3.9500732c0-0.1199951,0-8.4799805,0-8.4799805 c0-0.3900146,0.2199707-0.7600098,0.6000977-0.9100342c0.372345-0.074646,1.6670227-0.7574463,3.5100098,0.1899414 c2.4299316,1.2800293,4.1599121-0.2600098,4.75-1.2799072 C329.7394714,629.9380493,332.9093933,625.3880005,335.0694275,627.0081177z M298.7895203,507.4680786 c18.039917,15.5799561,35.2600098,110.7299805,35.4499512,111.7800293 c0.1298828,0.3199463-0.3100586,0.9199219-1.3000488,1.6699219c-3.5400391,2.7299805-12.0600586,5.7700195-15.8000488,6.2399902 c-1.789917,0.25-2.8199463,0.1000977-2.9699707-0.3000488c-0.0500488-0.1098633-39.6699219-85.9399414-39.8199463-86.0898438 c0,0,0,0,0-0.0100098c-0.0300293-0.0500488-0.0699463-0.1101074-0.1300049-0.130127 c-0.0400391-0.0299072-0.0800781-0.0499268-0.1199951-0.0599365c-0.210083-0.1300049-43.9400635-5.9899902-54.6400146-27.2299805 c2.1099854-1.3199463,4.1899414-2.7700195,6.3000488-4.2399902c7.9599609-5.5300293,16.1799316-11.25,27.1499023-12.5899658 C265.759491,497.7481079,291.259491,500.9580688,298.7895203,507.4680786z M252.3294373,495.4380493l0.0200195,0.1300049 c-1.1400146,0.1500244-2.25,0.3499756-3.3299561,0.5899658c-12.2199707,2.6900635-21.0300293,10.5900879-29.9899902,16.2800293 c-1.460083-3.2700195-2.0400391-6.5500488-1.8200684-10.1300049 c2.3349762-36.2987061,18.1218414-93.9786072-40.9899902-92.2698975c0.1400146-0.7301025,0.2800293-1.4101563,0.4199219-2.0400391 c1.5300293-6.8300781,6.7000732-12.3701172,14.5600586-15.6101074c5.0700684-2.0899658,10.7900391-3.1098633,16.8200684-3.1298828 c0.0998535,0.0100098,8.5699463,0.6699219,9.1499023,0.7099609c9.0500488,1.4099121,18.3500977,4.8800049,26.7700195,10.2600098 c17.1400146,10.9499512,31.9000244,35.9599609,32.0500488,36.2099609c0.0799561,0.1400146,0.2099609,0.2299805,0.3699951,0.25 c0,0,0.0098877,0,0.1400146,0.0100098c0,0,0.0083008,0.0019531,0.0108643,0.0036621 c0.0205078,0.0021973,0.0267334,0.00354,0.0690918,0.0063477c0.0200195,0,0.0300293,0,0.0499268,0.0100098 c0.0600586,0,0.1101074,0.0100098,0.1601563,0.0100098h-0.0600586c0.0300293,0,0.0600586,0,0.0999756,0.0100098 c0.039917,0,0.0799561,0,0.1199951,0.0100098h0.0400391c0.0500488,0.0100098,0.0999756,0.0100098,0.1499023,0.0200195 c0.0700684,0.0100098,0.1700439,0.0200195,0.1900635,0.0200195c0.1300049,0.0098877,0.2800293,0.0299072,0.4400635,0.0499268 c0.0200195-0.0100098,0.0300293,0,0.039917,0c0.0100098,0,0.0300293,0,0.0500488,0.0100098 c0.1199951,0,0.1400146,0.0098877,0.1400146,0.0098877c3.7399902,0.380127,15.0300293,1.5300293,45.3499756,4.6401367 c0.3900146-0.0300293,0.7698975,0.1999512,1.1300049,0.6699219c2.7700195,3.6400146,3,16.8601074,0.1799316,17.1101074 c-11.8399658,1.4199219-45.4799805,4.7199707-57.1398926,2.039917 c-14.1900635-3.2600098-19.1900635-14.1500244-20.0800781-16.3599854c0-0.0100098,0-0.0100098,0-0.0200195l-0.1499023-0.3999023 v-0.0100098l-0.0100098-0.0100098l-5.2600098-14.6401367c0-0.0100098-0.0100098-0.0100098-0.0100098-0.0200195 l-0.5500488-1.5299072c-0.0900879-0.2600098-0.3800049-0.3900146-0.6300049-0.2999268 c-0.2600098,0.0898438-0.4000244,0.3798828-0.3099365,0.6398926c0.039917,0.1101074,0.5699463,1.5600586,0.5998535,1.6600342 v0.0200195c0,0.0198975,7.7000732,35.4899902,7.710083,35.5 C249.1874542,468.874939,247.5327759,454.8857422,252.3294373,495.4380493z M267.7194519,462.3779907h-18.2800293 l-1.6398926-14.4199219C251.8094177,455.1480103,258.8294373,460.4880981,267.7194519,462.3779907z M397.8993835,647.8579712 h-17.8399658V482.2180786h17.8399658V647.8579712z M433.7394714,463.3779907v17.8400879H251.6593933 c-0.0091248-0.0455627-0.0218658-0.1972656-0.0300293-0.2299805c-0.0998535-0.8601074-0.5299072-4.5400391-2.079834-17.6101074 H433.7394714z M418.7695007,462.3779907h-7.5800781l4.2299805-5.3299561L418.7695007,462.3779907z M414.4394226,456.6880493 l-4.5300293,5.6899414H337.839447l3.6600342-5.6899414H414.4394226z M401.9494324,455.6880493h-4.4699707l-12.0600586-24.6899414 h4.4699707L401.9494324,455.6880493z M469.259491,343.5181274c1.7299805,0,3,1.6799316,2.4699707,3.3798828L461.3993835,379.40802 v0.0100098c-0.0317993,0.1000671-15.1999207,47.8998413-15.25,48c-0.4899902,1.5500488-1.9099121,2.5800781-3.5200195,2.5800781 h-1.6899414c0.7299805-0.5700684,1.2900391-1.3400879,1.5800781-2.2700195l25.5699463-80.5300293 c0.4400635-1.3900146,0.0100098-2.7900391-0.9400635-3.6799316H469.259491z M464.6694031,343.5181274 c1.7399902,0,3,1.6799316,2.4699707,3.3798828l-25.5799561,80.5200195 c-0.4899902,1.5500488-1.9000244,2.5800781-3.5198975,2.5800781H300.129364c-2.539917,0-4.2799072-2.4500732-3.5299072-4.8100586 l25.1199951-79.0899658c0.4899902-1.5400391,1.9099121-2.5799561,3.5300293-2.5799561H464.6694031z M414.1493835,234.0980835 c-2.7099609-1.5999756-6.8099365-5.210083-9.4399414-10.1300049c-0.8200684-1.5400391-1.0400391-2.7800293-0.6400146-3.6000977 c0.3376465-0.6750488,1.0357666-0.9145508,1.3048096-0.9887695l2.1574707,2.7456055 c0.0693359,0.0878906,0.171875,0.1337891,0.2753906,0.1337891c0.0761719,0,0.1523438-0.0244141,0.2158203-0.074707 c0.1523438-0.1196289,0.1787109-0.3398438,0.0595703-0.4916992l-2.1844482-2.7800293 c0.0115967-0.1109619,0.0001221-0.2246094-0.0686035-0.3240967c-1.4300537-2.2399902,0.75-3.4801025,2.8699951-2.2399902 l2.2199707,2.7099609c0.1000977,0.1199951,0.25,0.1800537,0.3900146,0.1800537 c0.4400635,0,0.6400146-0.4899902,0.3900146-0.8200684l-2.1799316-2.6398926c0-0.0200195-0.0100098-0.0400391-0.0200195-0.0600586 c-1.6600342-2.6799316,0.9899902-4.3601074,3.6799316-1.7099609l1.7800293,2.3798828 c0.1799316,0.2299805,0.5,0.2600098,0.6999512,0.1000977c0.2199707-0.1600342,0.2600098-0.4799805,0.1000977-0.6999512 l-1.7399902-2.3200684c0-0.0100098,0-0.0200195-0.0100098-0.0300293 c-2.7000732-3.9899902-9.4599609-15.0800781-8.4000244-18.3999023c0.1199951-0.3601074,0.3299561-0.5900879,0.6500244-0.710083 c2.2600098-0.8199463,7.9799805,6.4699707,12.1699219,12.8399658c-0.8798828,0.3601074-1.6599121,0.8000488-2.3000488,1.3000488 c-2.289917,1.8200684-1.619873,4.6099854,1.3000488,5.2399902c1.0200195,0.2199707,3.5900879,0.3100586,4.7199707,0.3399658 c-0.0699463,1.0999756,0.0200195,3.460083,2.0300293,4.5899658c0.2399902,0.1401367,0.5400391,0.0500488,0.6800537-0.1899414 s0.0499268-0.5400391-0.1900635-0.6799316c-1.5799561-0.8901367-1.5699463-2.9700928-1.5100098-3.7800293 c0.0400391-0.380127,0.1101074-0.5300293-0.0599365-0.75c-0.1900635-0.2099609-0.3599854-0.1700439-0.6400146-0.1900635 c-0.8900146-0.0098877-3.7900391-0.0899658-4.8100586-0.3199463c-2.1499023-0.4599609-2.5-2.2099609-0.8999023-3.4699707 c2.3499756-1.8400879,6.9099121-2.8200684,10.6699219-1.460083c3.0800781,1.1099854,2.4899902,5.3900146,2.0600586,8.5200195 c-0.3000488,2.2200928-0.4699707,3.3399658,0.4699707,5.6400146c-3.8699951,3.3100586-9.8800049,9.5100098-13.1199951,13.6799316 C416.0594177,235.1279907,415.4594421,234.8480835,414.1493835,234.0980835z M413.2294617,324.367981 c-0.9599609,0-1.8500977-0.5299072-2.3000488-1.3898926c-0.0641479-0.1175842-4.5612183-8.6682434-4.6199951-8.7800293h74.6199951 c0.2800293,0,0.5-0.2199707,0.5-0.5c0-0.2700195-0.2199707-0.5-0.5-0.5h-75.1499023L378.6593933,261.65802 c-0.8999023-1.7299805,0.3601074-3.8099365,2.3000488-3.8099365h81.4399414c0.960083,0,1.8500977,0.539917,2.3000488,1.3900146 c2.0400391,3.8798828,26.9199219,51.1599121,28.9100342,54.9499512c0.0899658,0.1600342,0.2598877,0.2600098,0.4400635,0.2600098 c5.2299805,0,4.8999023,0,10.4599609,0c-2.5900879,3.3400879-4.0200195,7.2099609-4.0200195,7.5800781 c0.0100098,0.3898926,0.1999512,1.1398926,0.8798828,1.4699707c0.6801758,0.3399658,1.630127,0.1599121,2.8601074-0.5500488 c-0.1500244,0.4499512-0.2700195,0.9599609-0.2800293,1.4199219H413.2294617z M477.8094177,282.0081177 c7.1600342-5.3200684,10.5500488-10.0900879,10.7900391-10.3100586l5.6099854,41.4899902L477.8094177,282.0081177z M467.9093933,325.367981h36.2199707v0.0100098c0.5900879,1.25,2.4500732,1.1401367,3.6800537,0.5300293 c-0.2399902,1.1900635,0.4000244,2.0600586,1.460083,2.4100342 C495.759491,327.788147,480.5295105,326.6279907,467.9093933,325.367981z M510.3893738,328.3579712 c0.7200928-0.1499023,1.3701172-0.6298828,1.900116-1.1499023c-0.0100098,0.4199219,0.039917,0.8399658,0.1799316,1.2299805 C511.7795105,328.4180298,511.089447,328.3880005,510.3893738,328.3579712z M515.7494507,328.538147h-0.0100098 c-0.6000977,0.3398438-1.6800537,0.4799805-2.1300049-0.0500488c0,0,0-0.0100098-0.0100098-0.0100098 c-0.5499268-0.6800537-0.2399902-2.2199707-0.0400391-2.8601074c0.7600098-0.8598633,2.3000488-2.6398926,2.3000488-2.6398926 c0.1600342-0.1800537,0.1800537-0.4799805-0.0500488-0.7099609c-0.2099609-0.1800537-0.5198975-0.1501465-0.7099609,0.0499268 c-0.0899658,0.0999756-2.4100342,2.7800293-2.4700928,2.8800049c0,0.0100098,0,0.0100098,0,0.0100098 c-0.0299072,0.0400391-0.0699463,0.0999756-0.1098633,0.1599121c-0.4799805,0.6800537-1.9500427,2.5800781-3.2199402,1.8701172 c-0.3000488-0.1600342-0.4700928-0.3701172-0.5200195-0.6400146c-0.1401367-0.6500244,0.4299316-1.6099854,0.8598633-2.1400146 c0-0.0200195,0.0100098-0.0200195,0.0100098-0.0200195c0.0300293-0.0500488,1.9500732-2.2099609,2.3300781-2.5400391 c0.3499451-0.3798828,0.4098816-0.369873,0.4999695-0.5499268c0.1999512-0.5100098-0.4299316-0.9200439-0.8100281-0.5599365 c-1.0300293,0.9699707-2.7099609,2.9399414-2.8099365,3.039917c-0.8800049,0.9500732-2.0200195,1.7199707-3.2800293,1.4799805 c-0.3699951-0.0699463-0.4899902-0.2299805-0.539917-0.3599854c-0.3300781-0.7399902,0.369873-2.4399414,0.7600098-3.0900879 c0.0098877-0.0098877,0.0098877-0.0198975,0.0198975-0.039917c0.1800537-0.1900635,1.3800049-1.7199707,3.2900391-3.3800049 c0.2099609-0.1799316,0.2299805-0.4899902,0.0499268-0.6999512c-0.1799316-0.2099609-0.5-0.2299805-0.6999512-0.0500488 c-1.6500244,1.4299316-3.4499512,3.4499512-3.4499512,3.5500488c-0.0200195,0.0100098-0.0300293,0.0300293-0.0300293,0.0300293 c-0.3800049,0.2600098-0.7099609,0.4799805-1,0.6699219c-1.4299316,0.8800049-2.0100098,0.7399902-2.1700439,0.6600342 c-0.2299805-0.1099854-0.289917-0.3900146-0.3099365-0.5200195c0.7199707-2.1500244,1.8399658-4.2800293,3.0999756-6.0899658 c2.4400635-3.4599609,5.6300049-6.130127,9.72995-7.3200684c4.0499268-1.1699219,8.6700439-2.0500488,13.7700195-2.5999756 c0.0599365,3.3199463,0.6199951,7.8900146,0.6700439,8.3800049c0.7299805,6.2700195,1.1999512,7.0500488,1.1999512,7.2900391 c-3.5600586,0.2700195-5.1199951,0.2099609-5.8699951,0.2199707 C518.9293823,321.9580688,518.0794067,327.288147,515.7494507,328.538147z M530.27948,322.7180786 c0.289917,0.7299805,0.539917,0.9699707,0.7299805,1.0400391l0.0799561,0.0599365 c0.1500244,0.1500244-0.1300049,0.0899658,3.5699463,0.5499268H520.52948 c0.869873-0.829834,1.9699707-1.4099121,3.5699463-1.4099121 C525.3294067,322.9380493,526.3693237,323.0081177,530.27948,322.7180786z M517.2994995,328.578064 c0.8598633-0.8900146,1.539917-2.1600342,2.3598633-3.210083H541.27948c0.2299805,0,0.3999023-0.1699219,0.4499512-0.289917 c10.8399658,0.8199463,21.8898926,0.9699707,32.6799316,0.1199951 C556.8693237,328.5580444,535.319397,329.0480347,517.2994995,328.578064z M591.9193726,321.8080444 c-3.3999023,0.710083-7.9399414,1.1600342-8.0400391,1.1700439c-0.4199219,0.1298828-0.8498535,0.25-1.289917,0.3599854 c-14.6800537,1.9200439-31.460083,1.789917-45.5100098,0.3099365c-2.0100098-0.2299805-4.6500244-0.5699463-5.4300537-0.6599121 c-0.0899658-0.0900879-0.119873-0.130127-0.2600098-0.1800537c-0.75-0.9300537-1.5799561-8.1600342-1.7199707-9.3599854 c-0.1799316-1.5800781-0.9599609-9.2800293-0.4199219-10.7700195c10.1298828-0.6300049,43.4899902-2.7199707,43.4899902-2.7299805 c0.2199707-0.0600586,0.4199219-0.2900391,0.3499756-0.6400146c0-0.0100098-0.0100098-0.0198975-0.0100098-0.0299072 s-0.0100098-0.0100098-0.0100098-0.0200195c-0.2999268-0.7900391-0.7000732-1.7700195-1.4300537-3.630127v-0.0200195 c0-0.0098877-0.0100098-0.0098877-0.0100098-0.0198975c-0.7299805-1.7700195-5.8398438-14.460083-5.8498535-14.4899902 c-2.9200439-7.8800049-6.0700684-17-9.5700684-27.6600342l-0.0100098-0.0100098 c-0.5999756-2.2600098-1.1499023-4.5200195-1.6199951-6.7800293c-0.0599365-0.2700195-0.3299561-0.4499512-0.5999756-0.3898926 c-0.2700195,0.0599365-0.4399414,0.3199463-0.3800049,0.5899658c0.4799805,2.2999268,1.039917,4.5899658,1.6600342,6.8900146 c0.3598633,1.2600098,0.7199707,2.5400391,1.0699463,3.8399658c0.0200195,0.0499268,0.0300293,0.1099854,0.0499268,0.1700439 c3.630127,13.3798828,6.2700195,28.5499268,0.2301025,36.6699219c-2.6300049,3.5500488-6.7000732,5.6400146-12.3599854,6.3200684 c-10.5714722,0.6636353-8.4552002,0.5327454-15.2800293,0.9599609c-0.3100586,0.0300293-0.8800049,0.0900879-0.8900146,3.3699951 c-5.2000732,0.5599365-9.9100342,1.4400635-14.0299072,2.6400146c-3.8000183,1.1099854-6.650116,3.3499756-8.7200623,5.7399902 h-10.0799561c-0.6411438-4.4827881,2.1865234,16.0583496-5.7900391-42.8800049 c0-0.3199463-0.1199951-2.8599854,0.0500488-5.8699951c-0.0100098-0.0300293-0.0100098-0.0600586,0-0.0900879 c0.1296997-3.8781433,1.2003479-10.5058289,1.9199219-13.0198975c0.1201172-0.4200439,0.2299805-0.8199463,0.3500977-1.210083 c0.0799561-0.2600098-0.0700684-0.539917-0.3300781-0.619873c-0.2700195-0.0900879-0.5400391,0.0599365-0.6199951,0.3299561 c-0.1199951,0.4000244-0.2399902,0.7999268-0.3499756,1.2199707c-0.0100098,0.0100098-0.0100098,0.0100098-0.0100098,0.0200195 v0.0100098c-0.8968506,3.1772003-2.242981,7.5950317-3.3699951,10.7099609 c-2.3199463,6.5899658-4.7800293,11.9100342-7.4300537,16.1099854c-0.3499756,0.2800293-2.0300293,1.5700684-2.7900391,2.0800781 c-7.9599609-15.1101074-10.4199219-19.7900391-11.079834-21.0500488 c-0.0200195-0.0300293-0.0400391-0.0600586-0.0500488-0.0899658c-0.0200195-0.0300293-0.0900879-0.1700439-0.1101074-0.210083 c0,0,0,0,0-0.0100098h-0.0100098c-0.0299072-0.0599365-0.0299072-0.0699463-0.0198975-0.0499268 c-0.0100098-0.0100098-0.0100098-0.0200195-0.0200195-0.0300293l-0.0100098-0.0198975 c-0.6199951-1.1900635-1.8399658-1.9300537-3.1800537-1.9300537H430.089447 c-12.5799561-13.4300537-14.9400635-16.1700439-15.0300293-16.2800293 c-0.1800537-0.7000732,2.1400146-3.7600098,2.5899658-4.3299561c3.4100342-4.3701172,9.4200439-10.5500488,13.5200195-13.9899902 c2.2700195-1.9100342,3.7099609-2.7900391,4.1500244-2.7900391h0.0499268l29.380127,30.3000488 c0.2199707,0.2199707,0.6099854,0.1999512,0.7900391-0.1000977c0.1899414-0.3099365,16.7600098-28.0500488,46.559906-36.5200195 l5.9300537,5.3100586c2.0936279,2.0936127,6.7147217,2.78302,9.8299561,2.6400146 c0.2799072-0.0100098,0.4899902-0.2399902,0.4899902-0.5100098c-0.0100098-0.25-0.210083-0.4899902-0.5200195-0.4899902 c-3.0341187,0.1146698-7.6604614-0.5106201-9.5699463-2.8699951c-1.1414185-1.5142517-1.1900635-6.3222504-1.1900635-5.9499512 c1.0888672-0.2183075,2.043457-0.3929596,3.7600098-0.9700928c9.9200439-3.1900635,11.8499756-9.3599854,11.9300537-9.6500244 c0.1298828-0.4299316-0.3200684-0.7800293-0.7099609-0.5899658c-5.630127,2.960083-11.1900635,4.1199951-14.9700928,4.0100098 c-11.9699402-1.9799805-14.190033-15.9200439-14.4899597-23.6199951c0.2000732,0.1599121,0.5200195,0.1099854,0.6700439-0.0999756 c0.0899658-0.1099854,2.119873-2.6300049,6.2399902-1.1800537c0.2600098,0.0900879,0.5500488-0.0500488,0.6398926-0.3100586 c0.0900879-0.2598877-0.0499268-0.5499268-0.3099365-0.6398926c-4.2799072-1.5-6.7399902,0.8299561-7.2600098,1.3999023 c-0.0599365-2.0100098,0.0200195-3.2099609,0.0699463-4.1499023c1.1601563-2.3800049,2.3200684-4.5,3.460083-6.3800049 c0-0.0100098,0.0100098-0.0300293,0.0198975-0.0400391c0.6101074-0.7399902,1.3100586-1.5198975,2.1201172-2.3199463 c5.5099792-5.4399414,14.1199646-6.3900146,14.97995,3.3699951c0.8599854,9.7598877,8.4699707,6,8.4699707,6 c0.0800781,0.0999756-2.8000488,4.1900635,3.0700684,3.5299072c0.2700195-0.0200195,0.4699707-0.2600098,0.4499512-0.5200195 c-0.0100098-0.1098633-0.0200195-0.1799316-0.0200195-0.5c-0.1499023-4.0998535,1.4399414-8.0698242,5.3500977-9.4199219 c2.1098633-0.7299805,3.75,0.2800293,4.7600098,1.6899414v0.0100098c0.1599121,0.2199707,0.3099365,0.460083,0.4399414,0.7000732 v0.0100098c2.0400391,4.0799561,0.7800293,9.6999512-4.8500977,13.2698975 c-0.2299805,0.1401367-0.2999268,0.4500732-0.1599121,0.6900635c0.0999756,0.1500244,0.2600098,0.2301025,0.4299316,0.2301025 c0.0900879,0,0.1800537-0.0200195,0.2600098-0.0700684c0.5700684-0.3601074,1.1101074-0.7399902,1.5900879-1.1400146 c-0.0100098,0.1199951-2.1201172,29.0100098-2.1201172,29.039917c-0.4299316,2.0100098-2.3299561,3.7800293-5.3398438,4.9801025 c-0.2600098,0.0999756-0.380127,0.3900146-0.2800293,0.6500244c0.0998535,0.2399902,0.369873,0.3798828,0.6499023,0.2800293 c3.380127-1.3500977,5.4400635-3.3200684,5.9599609-5.7700195l0.1201172-1.5800781 c12.0799561,2.0400391,27.1999512,7.2399902,35.6699219,20.2099609c1.5900879,2.4200439,3.25,5.3300781,4.9499512,8.6501465 c0.0700684,0.3398438,9.2900391,17.119873,14.7200928,41.0599365 C600.0994263,294.038147,604.0094604,319.3980103,591.9193726,321.8080444z"/><path d="M276.5295105,436.7080688c-0.0128174,0-0.0145264-0.003418-0.019165-0.0063477 C276.4582214,436.696228,276.4504089,436.6936646,276.5295105,436.7080688z"/><path d="M568.449646,193.8904419l7.0397949-5.3498535 c12.0570068,4.7006836,25.9327393,1.5814209,32.7102051-5.8200684c2.6298828-2.880127,4.0197754-6.2299805,4.0197754-9.6999512 v-0.0700684c-0.0500488-9.6899414-11.0500488-17.5100098-24.5500488-17.5100098h-0.2197266 c-6.5600586,0.0400391-12.7202148,1.8898926-17.3500977,5.2199707 c-9.3811035,6.7351074-9.3991699,17.2480469-1.2700195,23.9899902l-1.1799316,8.7700195 C567.5890503,193.8231812,568.0350952,194.166687,568.449646,193.8904419z M569.8595581,184.5105591 c0.0200195-0.170166-0.0400391-0.3400879-0.1799316-0.4501953c-7.9641113-6.4394531-7.7987061-16.2583008,1.0097656-22.5898438 c9.2468262-6.6550293,24.3092041-6.6921387,33.5900879-0.1999512c8.1759033,5.7248535,8.9855957,14.4255371,3.1799316,20.7700195 c-7.2961426,7.9973145-21.8425293,9.7175293-31.8498535,5.4599609c-0.1599121-0.0600586-0.3500977-0.0400391-0.5,0.0698242 l-6.3100586,4.7900391L569.8595581,184.5105591z"/><path d="M152.8881531,400.6511841l-2.1230469,11.3286133 c-0.0507813,0.2709961,0.1279297,0.5322266,0.3994141,0.5834961c0.2883301,0.0495605,0.534668-0.1407471,0.5830078-0.3999023 l2.1230469-11.3286133c0.0507813-0.2709961-0.1279297-0.5322266-0.3994141-0.5834961 C153.2055359,400.204895,152.9389343,400.3782349,152.8881531,400.6511841z"/><path d="M132.8627625,404.9695435c-0.2216797,0.1635742-0.2695313,0.4765625-0.1054688,0.6992188l6.8388672,9.2763672 c0.0976563,0.1328125,0.2490234,0.203125,0.4023438,0.203125c0.4067383,0,0.6464844-0.4654541,0.4023438-0.796875 l-6.8388672-9.2763672C133.3979187,404.852356,133.0854187,404.8059692,132.8627625,404.9695435z"/><path d="M122.7006454,423.8157349c13.1154861,1.5115967,11.3941727,1.3242188,11.5087967,1.3242188 c0.25,0,0.4667969-0.1879883,0.4960938-0.4428711c0.03125-0.2739258-0.1650391-0.5219727-0.4394531-0.5537109 l-11.4502029-1.3208008c-0.2636719-0.0317383-0.5224609,0.1645508-0.5546875,0.4394531 C122.2299423,423.5359497,122.4262314,423.7839966,122.7006454,423.8157349z"/><path d="M235.3896179,356.9204712c0.6699219-0.1000977,1.1398926-0.7199707,1.0400391-1.3898926 c-0.1000977-0.670166-0.7299805-1.1401367-1.4001465-1.0400391c-0.6699219,0.0998535-1.119873,0.7299805-1.0200195,1.3999023 C234.1095886,356.5603638,234.7194519,357.0205688,235.3896179,356.9204712z"/><path d="M325.1095886,346.5803833c-0.2299805,0.0400391-0.420166,0.2102051-0.4899902,0.4401855 l-22.7800293,71.7099609c-0.1013184,0.3034668,0.1312256,0.6499023,0.4799805,0.6499023c13.1317139,0,125.0136719,0,138.2399902,0 c0.2199707,0,0.4099121-0.1398926,0.4799805-0.3498535l22.8100586-71.8200684 c0.1036377-0.310791-0.1235352-0.6501465-0.4699707-0.6501465 C318.7826843,346.5603638,325.2547302,346.5441284,325.1095886,346.5803833z M462.6894226,347.5603638l-22.4897461,70.8200684 c-16.8608398,0-120.4462891,0-137.2001953,0l22.5-70.8200684 C346.0739441,347.5603638,442.1696472,347.5603638,462.6894226,347.5603638z"/><path d="M312.5595398,411.8904419h26.2600098c0.2199707,0,0.4099121-0.1398926,0.4799805-0.3498535 l18.619873-58.6401367c0.0500488-0.1499023,0.0302734-0.3200684-0.0698242-0.4499512 c-0.0900879-0.130127-0.2399902-0.1999512-0.3999023-0.1999512h-26.2602539c-0.2199707,0-0.4099121,0.1398926-0.4799805,0.3498535 l-18.6298828,58.6401367C311.9745789,411.5545044,312.2028503,411.8904419,312.5595398,411.8904419z M331.54953,353.2505493 h25.2099609l-18.3098145,57.6398926h-25.2102051L331.54953,353.2505493z"/><path d="M337.1401062,357.3933716h10.3369141c0.2763672,0,0.5-0.2236328,0.5-0.5s-0.2236328-0.5-0.5-0.5h-10.3369141 c-0.2763672,0-0.5,0.2236328-0.5,0.5S336.863739,357.3933716,337.1401062,357.3933716z"/><path d="M333.9584656,364.5315552h10.3369141c0.2763672,0,0.5-0.2236328,0.5-0.5s-0.2236328-0.5-0.5-0.5h-10.3369141 c-0.2763672,0-0.5,0.2236328-0.5,0.5S333.6820984,364.5315552,333.9584656,364.5315552z"/><path d="M346.2309265,370.6692505H335.894989c-0.2763672,0-0.5,0.2236328-0.5,0.5s0.2236328,0.5,0.5,0.5h10.3359375 c0.2763672,0,0.5-0.2236328,0.5-0.5S346.5072937,370.6692505,346.2309265,370.6692505z"/><path d="M332.7123718,378.8069458h10.3369141c0.2763672,0,0.5-0.2236328,0.5-0.5s-0.2236328-0.5-0.5-0.5h-10.3369141 c-0.2763672,0-0.5,0.2236328-0.5,0.5S332.4360046,378.8069458,332.7123718,378.8069458z"/><path d="M334.7494812,384.9451294h-10.3369141c-0.2763672,0-0.5,0.2236328-0.5,0.5s0.2236328,0.5,0.5,0.5h10.3369141 c0.2763672,0,0.5-0.2236328,0.5-0.5S335.0258484,384.9451294,334.7494812,384.9451294z"/><path d="M321.2309265,393.0828247h10.3369141c0.2763672,0,0.5-0.2236328,0.5-0.5s-0.2236328-0.5-0.5-0.5h-10.3369141 c-0.2763672,0-0.5,0.2236328-0.5,0.5S320.9545593,393.0828247,321.2309265,393.0828247z"/><path d="M333.504364,399.2210083H323.16745c-0.2763672,0-0.5,0.2236328-0.5,0.5s0.2236328,0.5,0.5,0.5h10.3369141 c0.2763672,0,0.5-0.2236328,0.5-0.5S333.7807312,399.2210083,333.504364,399.2210083z"/><path d="M330.3217468,406.3587036h-10.3369141c-0.2763672,0-0.5,0.2236328-0.5,0.5s0.2236328,0.5,0.5,0.5h10.3369141 c0.2763672,0,0.5-0.2236328,0.5-0.5S330.598114,406.3587036,330.3217468,406.3587036z"/><path d="M372.1440125,424.1921997h-6.2089844c-0.2763672,0-0.5,0.2236328-0.5,0.5s0.2236328,0.5,0.5,0.5h6.2089844 c0.2763672,0,0.5-0.2236328,0.5-0.5S372.4203796,424.1921997,372.1440125,424.1921997z"/><path d="M420.1095886,380.2605591h27.9699707c0.2199707,0,0.4099121-0.1401367,0.4799805-0.3400879 l9.3400879-27.9699707c0.1207275-0.3027344-0.1326904-0.6599121-0.4699707-0.6599121h-27.9702148 c-0.2099609,0-0.4099121,0.1398926-0.4699707,0.3398438l-9.3498535,27.9699707 C419.5254822,379.9653931,419.8100281,380.2605591,420.1095886,380.2605591z M429.8195496,352.2905884h26.9199219 l-9.0200195,26.9699707h-26.9099121L429.8195496,352.2905884z"/><path d="M354.2895203,380.2605591h60.6601563c0.2099609,0,0.3999023-0.1401367,0.4697266-0.3400879 l9.3500977-27.9699707c0.1133423-0.3394775-0.151886-0.6599121-0.4699707-0.6599121h-60.6699219 c-0.2102051,0-0.4001465,0.1398926-0.4699707,0.3398438l-9.3500977,27.9699707 C353.7100525,379.9185181,353.9338074,380.2605591,354.2895203,380.2605591z M363.9994812,352.2905884h59.6000977 l-9.0100098,26.9699707h-59.6101074L363.9994812,352.2905884z"/><path d="M442.1296082,355.22052c-5.7399902,0-11.9699707,4.6699219-13.8901367,10.3999023 c-1.9705811,5.9116211,1.2915039,10.7099609,7.170166,10.7099609c5.7399902,0,11.9699707-4.6599121,13.8898926-10.3898926 C451.287323,360.0169067,447.9963074,355.22052,442.1296082,355.22052z M435.4096375,375.3303833 c-2.420166,0-4.4101563-0.8999023-5.5900879-2.5498047c-4.0534668-5.5930176,3.0393066-15.9465332,11.6101074-16.5300293 l-3.130127,9.369873c-0.1130371,0.338623,0.1508789,0.6601563,0.4699707,0.6601563h9.3300781 C446.0795593,371.3303833,440.5395203,375.3303833,435.4096375,375.3303833z M448.8495789,363.2305298 c-0.0252686,0.5546875-0.2453613,1.6220703-0.3999023,2.0500488h-8.9902344l3.0300293-9.0500488 C446.7619324,356.388855,449.165741,359.4111938,448.8495789,363.2305298z"/><path d="M416.5895691,359.5205688c-1.6799316,1.6699219-9.2199707,7.7299805-15.5700684,6.7600098 c-5.9900818-0.9185486-4.1777039-5.1303406-11.119873-5.0200195c-4.5623169,0.0825195-17.7267456,6.7172241-18.0700684,2.4299316 c-0.1201172-1.2900391-0.6401367-2.25-1.5400391-2.8701172c-1.9799805-1.3498535-5.0800781-0.4699707-5.2099609-0.4299316 c-0.1601563,0.0400391-0.2900391,0.1601563-0.3400879,0.3200684l-4.5200195,13.5300293 c-0.1125183,0.3369751,0.1495361,0.6599121,0.4699707,0.6599121h51.4001465c0.2099609,0,0.3999023-0.1398926,0.4699707-0.3400879 l4.8598633-14.5297852C417.5847473,359.5108643,416.9302368,359.1580505,416.5895691,359.5205688z M411.7294617,373.9004517 h-50.3398438l4.2099609-12.6098633c0.7199707-0.170166,2.8198242-0.5400391,4.119873,0.3598633 c1.6990356,1.1322632,0.4914551,2.8658447,2.130127,3.9399414c3.3157959,2.2052002,14.0769958-3.2772522,18.0698242-3.329834 c6.3911438-0.1159668,4.5458984,4.0404968,10.9501953,5c5.2800293,0.8098145,11.5998535-2.9599609,15-5.7600098 L411.7294617,373.9004517z"/><path d="M372.1396179,386.2605591h-18.9101563c-0.2700195,0-0.5,0.2199707-0.5,0.5s0.2299805,0.5,0.5,0.5h18.9101563 c0.2797852,0,0.5-0.2199707,0.5-0.5S372.4194031,386.2605591,372.1396179,386.2605591z"/><path d="M441.5695496,386.2605591h-56.5700684c-0.2700195,0-0.5,0.2199707-0.5,0.5s0.2299805,0.5,0.5,0.5h56.5700684 c0.2800293,0,0.5-0.2199707,0.5-0.5S441.8495789,386.2605591,441.5695496,386.2605591z"/><path d="M356.3095398,394.0405884c0,0.2797852,0.2199707,0.5,0.5,0.5h50.8701172c0.2797852,0,0.5-0.2202148,0.5-0.5 c0-0.2800293-0.2202148-0.5-0.5-0.5h-50.8701172C356.5295105,393.5405884,356.3095398,393.7605591,356.3095398,394.0405884z"/><path d="M438.7695007,393.5405884h-24.7900391c-0.2700195,0-0.5,0.2199707-0.5,0.5c0,0.2797852,0.2299805,0.5,0.5,0.5 h24.7900391c0.2800293,0,0.5-0.2202148,0.5-0.5C439.2695007,393.7605591,439.04953,393.5405884,438.7695007,393.5405884z"/><path d="M347.4694519,401.3203735c0,0.2800293,0.2199707,0.5,0.5,0.5h37.0300293c0.2800293,0,0.5-0.2199707,0.5-0.5 c0-0.2797852-0.2199707-0.5-0.5-0.5h-37.0300293C347.6894226,400.8203735,347.4694519,401.0405884,347.4694519,401.3203735z"/><path d="M432.4994812,400.8203735h-35.6799316c-0.2700195,0-0.5,0.2202148-0.5,0.5c0,0.2800293,0.2299805,0.5,0.5,0.5 h35.6799316c0.2800293,0,0.5-0.2199707,0.5-0.5C432.9994812,401.0405884,432.7795105,400.8203735,432.4994812,400.8203735z"/><path d="M358.4496765,408.1004028h-13.920166c-0.2800293,0-0.5,0.2199707-0.5,0.5s0.2199707,0.5,0.5,0.5h13.920166 c0.2697754,0,0.5-0.2199707,0.5-0.5S358.7194519,408.1004028,358.4496765,408.1004028z"/><path d="M414.679657,408.1004028h-44.5500488c-0.2800293,0-0.5,0.2199707-0.5,0.5s0.2199707,0.5,0.5,0.5h44.5500488 c0.2797852,0,0.5-0.2199707,0.5-0.5S414.9594421,408.1004028,414.679657,408.1004028z"/><path d="M429.0595398,408.1004028h-6.25c-0.2800293,0-0.5,0.2199707-0.5,0.5s0.2199707,0.5,0.5,0.5h6.25 c0.2800293,0,0.5-0.2199707,0.5-0.5S429.3395691,408.1004028,429.0595398,408.1004028z"/><path d="M441.7094421,576.8403931h55.0200195c0.2800293,0,0.5-0.2197266,0.5-0.5 c0-24.1999512,0-9.6313477,0-54.3598633c0-0.2800293-0.2199707-0.5-0.5-0.5h-55.0200195c-0.2797852,0-0.5,0.2199707-0.5,0.5 c0,20.0712891,0,34.5053711,0,54.3598633C441.2094421,576.6206665,441.429657,576.8403931,441.7094421,576.8403931z M442.2094421,522.4805298h54.0200195v12.5898438h-54.0200195V522.4805298z M442.2094421,536.0703735h54.0200195v12.5900879 h-54.0200195V536.0703735z M442.2094421,549.6604614h54.0200195c0,3.7741699,0,6.8439941,0,12.5900879 c-9.4094238,0-47.1816406,0-54.0200195,0V549.6604614z M442.2094421,563.2505493c15.0321045,0,39.0200195,0,54.0200195,0 v12.5898438h-54.0200195V563.2505493z"/><path d="M476.5795593,607.2005005c0-4.2299805-3.4399414-7.6699219-7.6601563-7.6699219 c-4.2299805,0-7.6699219,3.4399414-7.6699219,7.6699219s3.4399414,7.670166,7.6699219,7.670166 C473.1396179,614.8706665,476.5795593,611.430481,476.5795593,607.2005005z M468.9194031,613.8706665 c-3.6799316,0-6.6699219-2.9902344-6.6699219-6.670166s2.9899902-6.6699219,6.6699219-6.6699219 c3.670166,0,6.6601563,2.9899902,6.6601563,6.6699219S472.5895691,613.8706665,468.9194031,613.8706665z"/><path d="M483.6496277,526.3306274h-6.9301758c-0.2697754,0-0.5,0.2199707-0.5,0.5v3.8898926 c0,0.2800293,0.2302246,0.5,0.5,0.5h6.9301758c0.2697754,0,0.5-0.2199707,0.5-0.5v-3.8898926 C484.1496277,526.5505981,483.9194031,526.3306274,483.6496277,526.3306274z M483.1496277,530.22052h-5.9301758v-2.8898926 h5.9301758V530.22052z"/><path d="M493.3095398,526.3306274h-6.9199219c-0.2800293,0-0.5,0.2199707-0.5,0.5v3.8898926 c0,0.2800293,0.2199707,0.5,0.5,0.5h6.9199219c0.2800293,0,0.5-0.2199707,0.5-0.5v-3.8898926 C493.8095398,526.5505981,493.5895691,526.3306274,493.3095398,526.3306274z M492.8095398,530.22052h-5.9199219v-2.8898926 h5.9199219V530.22052z"/><path d="M467.3395691,639.8804321h-11.3701172c-0.2800293,0-0.5,0.2299805-0.5,0.5v3.9001465 c0,0.2700195,0.2199707,0.5,0.5,0.5h11.3701172c0.2700195,0,0.5-0.2299805,0.5-0.5v-3.9001465 C467.8395691,640.1104126,467.6095886,639.8804321,467.3395691,639.8804321z M466.8395691,643.7805786h-10.3701172v-2.9001465 h10.3701172V643.7805786z"/><path d="M469.9994812,640.3804321v3.9001465c0,0.2700195,0.2199707,0.5,0.5,0.5h11.3601074 c0.2800293,0,0.5-0.2299805,0.5-0.5v-3.9001465c0-0.2700195-0.2199707-0.5-0.5-0.5h-11.3601074 C470.2194519,639.8804321,469.9994812,640.1104126,469.9994812,640.3804321z M470.9994812,640.8804321h10.3601074v2.9001465 h-10.3601074V640.8804321z"/><path d="M355.5464783,297.9108276c0.0100098-0.0003662,0.0194092-0.0006104,0.022583-0.0007324 c-0.0013428,0.0001221-0.0041504,0.0001221-0.0090332,0.0002441c-0.0002441,0-0.0003662,0.0001221-0.0004883,0.0001221 C355.5544128,297.9105835,355.5505066,297.9107056,355.5464783,297.9108276z"/><path d="M355.5690613,297.9100952C355.570282,297.9100952,355.570282,297.9099731,355.5690613,297.9100952 L355.5690613,297.9100952z"/><path d="M138.7795105,304.680481c201.9833984-6.3079834,216.050293-6.7473145,216.7573242-6.7692871 c0.0029297-0.0001221,0.0061035-0.0002441,0.0096436-0.0003662c-0.0020752,0.0001221-0.0042725,0.0001221-0.0063477,0.0001221 c0.0085449-0.0002441,0.0152588-0.0004883,0.0198975-0.0006104c3.7996826-0.1201172,6.8095703-3.3200684,6.6894531-7.119751 c-1.5085449-52.3393555-1.4869385-105.6298828,0.0100098-156.6000977 c0.1101074-3.8100586-2.8999023-7.0100174-6.7099609-7.1301346l-216.5600586-6.7597656 c-3.7303467-0.1494141-7.0090332,3.057373-7.1298828,7.2399902c-1.5981445,53.7011795-1.6749268,112.2432938,0,169.8999023 C131.9749451,301.4342651,135.0287781,304.680481,138.7795105,304.680481z M355.5231628,297.911438 c0.0019531,0,0.0043945,0,0.0075684-0.0002441C355.5279236,297.911438,355.5253601,297.911438,355.5231628,297.911438z M132.8595886,127.5703659c0.0959473-3.4736328,2.7307129-6.3603516,6.0998535-6.2697754l216.5600586,6.7597733 c3.2600098,0.1000977,5.8300781,2.8400879,5.7399902,6.1000977c-0.0998535,3.2399902-0.1799316,6.4899902-0.2700195,9.7299805 l-228.4199219-5.7299805C132.6596375,134.6304321,132.7494812,131.1004028,132.8595886,127.5703659z M132.5395203,139.1604614 l228.4299316,5.7299805c-1.2099609,48.4101563-1.1098633,97.5,0.2800293,145.9299316 c0.1000977,3.25-2.4699707,5.9899902-5.7199707,6.0900879l-216.5700684,6.7700195 c-3.3974609,0.0917969-6.0048828-2.8503418-6.0998535-6.2700195 C131.3395691,244.9104614,131.2394714,191.6704712,132.5395203,139.1604614z"/><path d="M284.4594421,288.430481c0.0100098,0,0.0100098,0,0.0200195,0l65.7800293-1.7800293 c0.2800293-0.0100098,0.5-0.2399902,0.4899902-0.5100098c-1.1699219-43.3300781-1.3100586-87.2700195-0.3999023-130.5898438 c0-0.2871094-0.2249756-0.5100098-0.4899902-0.5100098l-65.8000488-1.380127c0,0,0,0-0.0100098,0 c-0.2700195,0-0.4899902,0.2199707-0.5,0.4899902c-0.9299316,44.3901367-0.7900391,89.4099121,0.4099121,133.7900391 C283.9816589,288.2520142,284.2237244,288.430481,284.4594421,288.430481z M284.5395203,154.6704712l64.8000488,1.3601074 c-0.8898926,43.0100098-0.7600098,86.619873,0.3999023,129.6298828l-64.7897949,1.7600098 C283.7695007,243.3804321,283.6296082,198.72052,284.5395203,154.6704712z"/><path d="M350.7367859,135.9412231l-66.9394531-1.8691406 c-0.2509766,0.0083008-0.5058594,0.2099609-0.5136719,0.4858398c-0.0078125,0.2763672,0.2099609,0.5063477,0.4863281,0.5141602 l66.9394531,1.8691406c0.0048828,0,0.0087891,0,0.0136719,0c0.2695313,0,0.4921875-0.2148438,0.5-0.4858398 C351.2309265,136.1790161,351.0131531,135.9490356,350.7367859,135.9412231z"/><path d="M152.5995789,248.4404907h0.1098633c5.0700684-0.0600586,9.1501465-4.5300293,9.1000977-9.9599609 c-0.0400391-5.4101563-4.1799316-9.7900391-9.2399902-9.7900391h-0.0400391 c-5.0043945,0.0201416-9.1821289,4.3863525-9.1398926,9.9599609 C143.4478455,244.0089722,147.4733582,248.4404907,152.5995789,248.4404907z M152.5395203,229.6904907h0.0400391 c4.5,0,8.1899414,3.9399414,8.2299805,8.8000488c0.0500488,4.8798828-3.5900879,8.8999023-8.1201172,8.9499512h-0.0998535 c-4.5454102,0-8.1420898-3.9790039-8.1999512-8.8000488C144.3493347,233.8577271,147.863739,229.711731,152.5395203,229.6904907z"/><path d="M217.808075,229.8635864c0.0019531,0.2753906,0.2255859,0.4970703,0.5,0.4970703 c0.0009766,0,0.0019531,0,0.0029297,0l56.2773438-0.3422852c0.2763672-0.0014648,0.4990234-0.2270508,0.4970703-0.5029297 s-0.2353516-0.4726563-0.5029297-0.4970703l-56.2773438,0.3422852 C218.0287781,229.3621216,217.8061218,229.5877075,217.808075,229.8635864z"/><path d="M210.3256531,229.4089966c-0.0009766,0-0.0019531,0-0.0029297,0l-38.5908203,0.2348633 c-0.2763672,0.0014648-0.4990234,0.2270508-0.4970703,0.5029297c0.0019531,0.2753906,0.2255859,0.4970703,0.5,0.4970703 c0.0009766,0,0.0019531,0,0.0029297,0l38.5908203-0.2348633c0.2763672-0.0014648,0.4990234-0.2270508,0.4970703-0.5029297 C210.8237,229.6306763,210.6000671,229.4089966,210.3256531,229.4089966z"/><path d="M200.0522156,238.1389771c0.0029297,0.2749023,0.2255859,0.4956055,0.5,0.4956055 c0.0009766,0,0.0029297,0,0.0048828,0l65.2167969-0.5820313c0.2753906-0.0024414,0.4980469-0.2285156,0.4951172-0.5043945 c-0.0029297-0.2749023-0.2255859-0.4956055-0.5-0.4956055c-0.0009766,0-0.0029297,0-0.0048828,0l-65.2167969,0.5820313 C200.2719421,237.6370239,200.0492859,237.8630981,200.0522156,238.1389771z"/><path d="M171.7963562,238.8914185c0.0009766,0,0.0029297,0,0.0048828,0l22.828125-0.2036133 c0.2753906-0.0024414,0.4980469-0.2285156,0.4951172-0.5043945c-0.0029297-0.2749023-0.2255859-0.4956055-0.5-0.4956055 c-0.0009766,0-0.0029297,0-0.0048828,0l-22.828125,0.2036133c-0.2753906,0.0024414-0.4980469,0.2285156-0.4951172,0.5043945 C171.2992859,238.6707153,171.5219421,238.8914185,171.7963562,238.8914185z"/><path d="M171.8881531,247.1389771l56.3027344-0.6625977c0.2763672-0.003418,0.4970703-0.2299805,0.4941406-0.5058594 s-0.2382813-0.5419922-0.5058594-0.4941406l-56.3027344,0.6625977c-0.2763672,0.003418-0.4970703,0.2299805-0.4941406,0.5058594 c0.0029297,0.2739258,0.2265625,0.4941406,0.5,0.4941406C171.8842468,247.1389771,171.8862,247.1389771,171.8881531,247.1389771z"/><path d="M152.9194031,262.9204712c-5.2333984,0.0847168-9.1413574,4.7263184-9.0197754,10.0700684 c0.114624,5.2342529,4.0744629,9.6699219,9.2199707,9.6699219h0.2199707c4.9899902-0.119873,8.9699707-4.5,8.9699707-9.8100586 v-0.2399902C162.1996765,267.180481,157.9694519,262.8005981,152.9194031,262.9204712z M153.29953,281.6604614 c-4.5476074,0.1098633-8.3013916-3.8179932-8.3999023-8.6999512c-0.1044922-4.9685059,3.5185547-8.9782715,8.0500488-9.0400391 c0.0397949-0.0100098,0.079834-0.0100098,0.1298828-0.0100098c4.487915,0,8.1303711,3.9086914,8.2299805,8.7199707 C161.4194031,277.5005493,157.8295593,281.5505981,153.29953,281.6604614z"/><path d="M210.7172546,262.9573364c-0.2763672,0.0048828-0.4960938,0.2329102-0.4912109,0.5087891 c0.0048828,0.2734375,0.2275391,0.4912109,0.5,0.4912109c0.0029297,0,0.0058594,0,0.0087891,0l64.2509766-1.1435547 c0.2763672-0.0048828,0.4960938-0.2329102,0.4912109-0.5087891c-0.0048828-0.2763672-0.2597656-0.4907227-0.5087891-0.4912109 L210.7172546,262.9573364z"/><path d="M199.9809265,264.1487427c0.2763672-0.0048828,0.4960938-0.2329102,0.4912109-0.5087891 s-0.2529297-0.4946289-0.5087891-0.4912109l-27.8310547,0.4956055c-0.2763672,0.0048828-0.4960938,0.2329102-0.4912109,0.5087891 c0.0048828,0.2729492,0.2275391,0.4912109,0.5,0.4912109 C172.2485046,264.6443481,199.8713074,264.1516724,199.9809265,264.1487427z"/><path d="M266.2553406,269.9514771c-0.0029297,0-0.0068359,0-0.0107422,0l-51.46875,1.0625 c-0.2753906,0.0058594-0.4951172,0.234375-0.4892578,0.5102539c0.0058594,0.2724609,0.2285156,0.4897461,0.5,0.4897461 c0.0029297,0,0.0068359,0,0.0107422,0l51.46875-1.0625c0.2753906-0.0058594,0.4951172-0.234375,0.4892578-0.5102539 C266.7494812,270.1687622,266.526825,269.9514771,266.2553406,269.9514771z"/><path d="M172.3100281,272.8909302l22.8242188-0.4711914c0.2753906-0.0058594,0.4951172-0.234375,0.4892578-0.5102539 s-0.1835938-0.4858398-0.5107422-0.4897461l-22.8242188,0.4711914c-0.2753906,0.0058594-0.4951172,0.234375-0.4892578,0.5102539 c0.0058594,0.2724609,0.2285156,0.4897461,0.5,0.4897461 C172.3022156,272.8909302,172.3061218,272.8909302,172.3100281,272.8909302z"/><path d="M228.7612,278.8152466l-56.2910156,1.3217773c-0.2763672,0.0068359-0.4941406,0.2358398-0.4882813,0.5117188 c0.0068359,0.2719727,0.2294922,0.4882813,0.5,0.4882813c0.1152344,0,56.1828613-1.3183594,56.3027344-1.3217773 c0.2763672-0.0068359,0.4941406-0.2358398,0.4882813-0.5117188S229.0326843,278.8328247,228.7612,278.8152466z"/><path d="M329.7494812,196.5105591c7.3601074-7.3701172,7.5-19.4799805,0.2900391-27.0100098 c-7.2046509-7.5315094-19.1514282-7.8841248-26.7099609-0.4101563 c-7.5200195,7.4401855-7.6601563,19.6801758-0.3000488,27.2700195 C310.3589783,203.9397583,322.3244324,203.9353638,329.7494812,196.5105591z M329.9096375,170.8403931 c0.0200195,0.0100098,0.0297852,0.0200195,0.0400391,0.0400391c3.9692383,4.5993652,5.2331543,10.9416504,3.9199219,16.1999512 c-0.5959778,2.978302-2.7720642,6.8293152-4.4799805,8.3500977c-4.0700684-4.1699219-8.130127-8.3500977-12.1801758-12.5600586 c4.1201172-4.0998535,8.3000488-8.2299805,12.4501953-12.3000488 C329.7494812,170.6604614,329.8295593,170.7505493,329.9096375,170.8403931z M328.9694519,169.8403931 c-4.1398926,4.0700684-8.3198242,8.2001953-12.4499512,12.3000488c-4.0698242-4.2099609-8.1098633-8.4499512-12.119873-12.6699219 C311.3415222,162.9281769,322.1577759,163.0907135,328.9694519,169.8403931z M300.2294617,175.3005981 c0.9138184-2.1312256,2.8499756-4.6298828,3.4599609-5.1201172c6.6223145,6.9759521,18.177002,19.0168457,25,25.9699707 c-6.8671875,6.3172607-16.375,6.3320313-22.9599609,1.2900391c-0.5073242-0.3881836-1.1560059-0.9466553-1.9799805-1.7700195 v-0.0100098C298.3349304,190.0779419,297.2287292,181.8245239,300.2294617,175.3005981z"/><path d="M289.988739,217.9387817h0.0009766l52.7275391-0.09375 c0.2763672-0.0004883,0.5-0.2246094,0.4990234-0.5009766c0-0.2758789-0.2246094-0.4990234-0.5-0.4990234h-0.0009766 l-52.7275391,0.09375c-0.2763672,0.0004883-0.5,0.2246094-0.4990234,0.5009766 C289.4897156,217.7156372,289.7133484,217.9387817,289.988739,217.9387817z"/><path d="M290.0346375,229.7498169c0.1704102,0,38.2421875-0.2297363,38.3994141-0.230957 c0.2763672-0.0014648,0.4990234-0.2270508,0.4970703-0.5029297c-0.0019531-0.2753906-0.2255859-0.4970703-0.5-0.4970703 c-0.0009766,0-0.0019531,0-0.0029297,0l-38.3964844,0.230957c-0.2763672,0.0014648-0.4990234,0.2270508-0.4970703,0.5029297 C289.5365906,229.5281372,289.7602234,229.7498169,290.0346375,229.7498169z"/><path d="M342.8510437,240.0198364l-52.7255859,0.5410156 c-0.2763672,0.0029297-0.4980469,0.2290039-0.4951172,0.5048828c0.0029297,0.2744141,0.2265625,0.4951172,0.5,0.4951172 c0.0019531,0,0.0029297,0,0.0048828,0l52.7255859-0.5410156c0.2763672-0.0029297,0.4980469-0.2290039,0.4951172-0.5053711 C343.3520203,240.2380981,343.1469421,239.989563,342.8510437,240.0198364z"/><path d="M342.9926453,251.6072388l-52.7226563,0.7646484 c-0.2763672,0.0039063-0.4970703,0.230957-0.4931641,0.5073242c0.0039063,0.2734375,0.2275391,0.4926758,0.5,0.4926758 c0.0019531,0,0.0048828,0,0.0068359,0l52.7226563-0.7646484c0.2763672-0.0039063,0.4970703-0.230957,0.4931641-0.5073242 C343.495575,251.8245239,343.2572937,251.5974731,342.9926453,251.6072388z"/><path d="M290.4828796,265.1819458l19.1953125-0.3598633c0.2753906-0.0053711,0.4951172-0.2333984,0.4902344-0.5092773 c-0.0048828-0.2729492-0.2275391-0.4907227-0.5-0.4907227c-0.0029297,0-0.0058594,0-0.0097656,0l-19.1953125,0.3598633 c-0.2753906,0.0053711-0.4951172,0.2333984-0.4902344,0.5092773c0.0048828,0.2729492,0.2275391,0.4907227,0.5,0.4907227 C290.4760437,265.1819458,290.4789734,265.1819458,290.4828796,265.1819458z"/><path d="M290.7084656,275.9915161c-0.2753906,0.0063477-0.4941406,0.2353516-0.4882813,0.5117188 c0.0068359,0.2719727,0.2285156,0.4882813,0.5,0.4882813c0.0039063,0,0.0078125,0,0.0117188,0l52.7138672-1.2119141 c0.2753906-0.0063477,0.4941406-0.2353516,0.4882813-0.5117188c-0.0058594-0.2758789-0.2363281-0.4755859-0.5117188-0.4882813 L290.7084656,275.9915161z"/><path d="M143.7795105,208.3203735l123.7299805,0.2001953c0.2800293,0,0.5-0.2199707,0.5-0.5 c0.0300293-16.9501953,0.2099609-34.1201172,0.5500488-51.0400391c0-0.5340576-0.7038574-0.6898193-0.9399414-0.2600098 c-3.1899414,5.6499023-6.4199219,11.4299316-9.6101074,17.1699219l-10.8098145-0.1398926 c-0.1601563,0-0.3200684,0.0698242-0.420166,0.2099609c-2.9899902,4.3100586-5.9799805,8.6398926-8.9599609,12.9699707 l-13.380127-0.1101074c-1.6899414-2.25-3.3898926-4.4899902-5.079834-6.7399902 c-0.1000977-0.1298828-0.2399902-0.1999512-0.4001465-0.1999512l-16.1799316-0.1899414 c-2.5900879-7.7700195-5.1899414-15.6999512-7.7299805-23.5700684c-0.0600586-0.1999512-0.25-0.3398438-0.4599609-0.3398438 l-16.1599121-0.3200684c-0.2299805,0.0200195-0.3901367,0.119873-0.4702148,0.3000488 c-2.3398438,5.2900391-4.6699219,10.5998535-6.9799805,15.9199219 c-5.8898926,0.8100586-11.7900391,1.6201172-17.6799316,2.4299316c-0.1999512,0.0300293-0.3601074,0.170166-0.4199219,0.3601074 c-3.2399902,10.9899902-6.4699707,22.1699219-9.5800781,33.2199707 C143.2055359,207.972229,143.4111023,208.3203735,143.7795105,208.3203735z M153.7494812,175.0603638 c5.880127-0.8198242,11.7700195-1.619873,17.6501465-2.4199219c0.1699219-0.0300293,0.3198242-0.1398926,0.3898926-0.3000488 c2.3000488-5.2998047,4.6201172-10.5898438,6.9499512-15.869873l15.4699707,0.3000488 c2.5400391,7.869873,5.1501465,15.7998047,7.7299805,23.579834c0.0700684,0.2001953,0.2602539,0.3400879,0.4702148,0.3400879 l16.2998047,0.1799316c1.6901855,2.2600098,3.380127,4.5,5.0800781,6.75 c0.1000977,0.1201172,0.2399902,0.1899414,0.3999023,0.1899414l13.8901367,0.130127 c0.1298828,0.0200195,0.3200684-0.0800781,0.4099121-0.2199707c2.9799805-4.3400879,5.9699707-8.6601563,8.9602051-12.9699707 l10.8498535,0.1499023c0.2199707-0.0100098,0.3500977-0.0998535,0.4399414-0.2600098 c2.9101563-5.25,5.8601074-10.5200195,8.7800293-15.6999512c-0.3100586,16.119873-0.4799805,32.4399414-0.5100098,48.5800781 l-122.5700684-0.1901855C147.4694519,196.5903931,150.5995789,185.7405396,153.7494812,175.0603638z"/><path d="M431.1496277,284.22052c-2.0510254,0-3.3300781,1.4946289-3.3300781,3.2399902 c0,2.5366211,2.432373,4.8100586,4.8999023,4.8100586c2.2485352,0,3.7265625-1.8417969,3.2302246-4.1401367 C435.4594421,285.97052,433.3095398,284.22052,431.1496277,284.22052z M434.5695496,290.4505005 c-1.4912109,1.8383789-5.0670166,0.3997803-5.6799316-2.3200684c-0.3590088-1.59375,0.6027832-2.9099121,2.2600098-2.9099121 C433.9323425,285.22052,436.0346375,288.6187134,434.5695496,290.4505005z"/><path d="M540.5494995,173.4505005c2.6018066-0.8029785,4.2130127,3.041626,1.6000977,4.9499512 c-0.232666,0.1706238-0.2635498,0.4858551-0.1101074,0.6999512c0.1296387,0.194458,0.4519653,0.2758179,0.6999512,0.1101074 c3.3984375-2.4676514,1.3676758-7.9058838-2.4799805-6.7199707c-0.2600098,0.079834-0.4099121,0.3598633-0.329834,0.619873 C540.0094604,173.3804321,540.2894897,173.5305786,540.5494995,173.4505005z"/><path d="M515.1693726,193.1604614l-0.4799805-0.8798828c-0.8974609,0.493042-2.232666,1.0385742-3.0597839,0.4399414 c-0.6101074-0.4499512-0.7102051-1.4001465-0.5500488-2.1401367c0.201416-0.8886719,0.6999512-1.7597656,1.019989-2.6699219 c0.7700195-2.2299805,0.4599609-4.6298828,0.1899414-6.7600098c-0.0400391-0.2700195-0.3000183-0.4599609-0.5600281-0.4299316 c-0.2700195,0.0400391-0.4699707,0.2900391-0.4299316,0.5600586c0.2600098,2.0100098,0.5500488,4.2998047-0.1499023,6.3098145 c-0.3372803,0.9545898-0.8378906,1.8293457-1.0500488,2.7700195c-0.3999023,1.8857422,0.5089111,3.6201172,2.4399109,3.6201172 C513.6040649,193.9805298,514.4721069,193.5098267,515.1693726,193.1604614z"/><path d="M506.5395203,181.7705688c-0.8300781,0.4399414-1.1398926,1.4499512-0.6999512,2.2700195 c0.4399414,0.829834,1.4499512,1.1398926,2.2700195,0.6999512c0.8200684-0.4301758,1.1398926-1.4499512,0.6999512-2.2700195 C508.3695984,181.6404419,507.3495789,181.3403931,506.5395203,181.7705688z"/><path d="M516.52948,179.2705688c-0.7199707,0.3898926-1,1.2700195-0.6101074,2 c0.380127,0.7199707,1.2700195,0.9899902,1.9902344,0.6098633c0.7199707-0.3798828,1-1.2800293,0.6098633-2 C518.1395874,179.1604614,517.2394409,178.8904419,516.52948,179.2705688z"/><path d="M521.0194702,176.6104126c-4.2600098-2.829834-7.4699707-0.369873-7.5100098-0.3398438 c-0.2099609,0.1699219-0.25,0.4799805-0.079834,0.6999512c0.1699219,0.2199707,0.4897461,0.25,0.6999512,0.0800781 c0.0300293-0.0200195,2.6699219-2.0400391,6.3398438,0.3999023 C521.0285034,177.7998962,521.567627,176.9919281,521.0194702,176.6104126z"/><path d="M517.9691772,196.5408325c-0.1816406-0.0610352-0.3818359,0.034668-0.4453125,0.2172852 c-0.0976563,0.2851563-1.0214844,1.7373047-2.3466797,2.0849609c-0.8837891,0.2290039-1.7978516-0.0649414-2.7177734-0.8818359 c-0.1445313-0.128418-0.3652344-0.1162109-0.4941101,0.0292969c-0.1279297,0.1445313-0.1152344,0.3657227,0.0292969,0.4941406 c0.9653015,0.8574219,2.1021423,1.366333,3.360321,1.0351563c1.6386719-0.4296875,2.6816406-2.1000977,2.8310547-2.5341797 C518.2484741,196.8030396,518.1517944,196.6038208,517.9691772,196.5408325z"/><path d="M577.1557007,169.7922974h24.3037109c0.2763672,0,0.5-0.2236328,0.5-0.5s-0.2236328-0.5-0.5-0.5h-24.3037109 c-0.2763672,0-0.5,0.2236328-0.5,0.5S576.8793335,169.7922974,577.1557007,169.7922974z"/><path d="M577.1557007,178.0696411h13.0126953c0.2763672,0,0.5-0.2236328,0.5-0.5s-0.2236328-0.5-0.5-0.5h-13.0126953 c-0.2763672,0-0.5,0.2236328-0.5,0.5S576.8793335,178.0696411,577.1557007,178.0696411z"/></g></g></svg>